<svg version="1" xmlns="http://www.w3.org/2000/svg" width="1440" height="1440" viewBox="0 0 1080.000000 1080.000000"><path d="M542 31.7c-1.4.2-8.3.7-15.5 1.2-10.6.6-7.4.8 17.3.7 19.1-.1 30.5.3 31 .9.4.6 7.2 1.1 16.2 1.2 10.6.1 14.2-.2 11.5-.7-2.2-.5-7.2-.9-11.2-.9-4-.1-11.6-.5-17-1.1-11.4-1.1-28.7-1.8-32.3-1.3zM507.8 34.7c1.2.2 3 .2 4 0 .9-.3-.1-.5-2.3-.4-2.2 0-3 .2-1.7.4zM608.8 35.7c1.2.2 3.2.2 4.5 0 1.2-.2.2-.4-2.3-.4s-3.5.2-2.2.4zM495.4 37c-7.2.8-10.7 2-10.4 3.5 0 .5-2.9 1.7-6.6 2.7-3.7 1-7.9 2.9-9.4 4.1-1.5 1.3-6.3 3.3-10.6 4.6-22.4 6.3-35.4 10.5-41 13.2-3.5 1.6-6.7 2.9-7.2 2.9-.4 0-1.7.7-2.8 1.6-1.9 1.5-1.8 1.5.3 1.1 1.2-.3 2.7.1 3.3.8.9 1 .2 1.5-3.2 2-2.4.4-5.2 1.2-6.3 1.8-1.9 1-1.8 1.1.9 1.8 4.7 1.3 19.6-.7 46.1-6.1 13.9-2.9 27.4-5.4 35-6.5 10.6-1.5 17.6-2.4 23.4-3 3.6-.4 8.1-.9 10-1.1 17.4-2.5 66.9-3.6 87.1-2.1 5.8.5 13.2 1 16.5 1.2 3.3.3 7.6.8 9.5 1.1 1.9.4 4.4.9 5.5 1 1.1.1 3.6.5 5.5.8 1.9.2 5.5.7 8 1 2.5.4 5.6.9 7 1.2 1.4.3 3.9.8 5.5 1.1 5.8.9 21.1 4.4 32.3 7.4 6.2 1.6 11.7 2.7 12.4 2.3.7-.5.8-.3.3.6-.6 1-.3 1.2 1.3.8 1.4-.4 2-.2 1.6.4-.5.7.2.9 1.9.6 1.6-.3 2.4-.1 2 .5-.4.6.2.8 1.5.5 1.4-.4 2-.2 1.6.4-.4.6.2.8 1.6.3 1.7-.5 2.1-.4 1.5.6-.6.9-.2 1.1 1.3.7 1.4-.4 2-.2 1.6.4-.4.6.2.8 1.6.3 1.6-.5 2-.4 1.5.5s-.1 1 1.5.5 2-.4 1.5.5-.1 1 1.5.5c1.4-.5 2-.3 1.6.3-.3.6.8 1.5 2.6 2.1 3.9 1.4 4.7 1.4 2.8 0-1.1-.8-.9-.9 1-.4 1.4.4 3 1.2 3.5 1.7.6.6.3.7-1 .3-1.8-.6-1.8-.5-.2.5.9.6 2.1.9 2.6.5.5-.3 1.2.1 1.4.7.4.9.6.9.6.1.1-1.8 4.1-.3 4.1 1.6 0 1.3.2 1.3.9.2.6-.9 1.1-1 1.5-.2.4.6 1.2.9 1.7.6.5-.4.9-.1.9.5s.5.8 1 .5c.6-.3 1-.2 1 .4 0 .6.7.7 1.7.4 1.2-.5 1.4-.3.8.7-.6 1-.4 1.2.8.7 1-.3 1.7-.2 1.7.3 0 .6.9 1 1.9 1 1.1 0 2.3.4 2.6 1 .3.5 1.5 1 2.5 1s2 .5 2.2 1.1c.2.5 1 1.1 1.8 1.3 1.9.3 17.2 7.9 26.4 13.1 3.8 2.1 6.6 3.3 6.2 2.7-1.2-1.9.3-1.4 7.1 2.3 10.9 6.2 6.8 2.9-5.4-4.3-16.2-9.4-23.1-13.2-42.3-22.9-9.1-4.5-16.1-8.3-15.7-8.3 1.1 0 27.3 10.7 31.8 13.1 2 1 3.9 1.5 4.3 1.2.3-.4.6-.1.6.6s.5.9 1 .6c1.1-.7 29.8 14.2 47.1 24.5 10.3 6.1 13.4 7.3 7.8 2.9-13.5-10.6-58.5-35.3-84.4-46.4-37.2-15.9-81.6-28.7-117.5-33.9-27.2-4-43.1-5-81.7-5-21.1-.1-38.3-.3-38.3-.6s1.5-.7 3.3-.9c1.7-.1 5-.6 7.2-1.1 3.9-.8 3.9-.8-2-.9-3.3-.1-10.3-.4-15.5-.6-5.2-.1-12.7.1-16.6.5zm308.3 77.6c-.7.7-5.7-1.8-5.7-2.8 0-.5 1.4-.1 3.1.7 1.7.9 2.9 1.9 2.6 2.1zM633 38.4c24.6 3.7 47.3 8.2 63.5 12.7 8.3 2.3 16.6 4.5 18.5 4.9 4.9 1.1 16.9 4.8 26.8 8.1 4.5 1.6 8.2 2.6 8.2 2.3 0-.4-4.1-2.4-6-2.9-.3 0-3.4-1.5-7-3.2-16.9-8.1-71.1-20.6-98-22.7-19.7-1.6-20.9-1.4-6 .8z"/><path d="M558.5 61.1c-9.3.5-21.9 1.5-28 2.3l-11 1.5 16-.7c40.7-1.6 73.3-.5 100 3.4 36.2 5.2 80.6 17.3 110 29.9 19.6 8.4 48.1 22.8 57.5 29 1.9 1.2 7.3 4.7 12 7.6 9.7 6 30.8 21.5 45.5 33.3 31.2 25.1 65.3 62.2 88.6 96.3 4.9 7.3 9.2 13.3 9.5 13.3.7 0-9-15.4-16.4-26-7.9-11.3-20.6-27.2-28.3-35.5-3.1-3.3-5.8-6.5-6-7-.2-.6-.8-.9-1.2-.7-.4.1-1-.4-1.2-1-.8-2.1-16-17.8-17.3-17.8-.6 0-1.4-.5-1.8-1.2-.5-.7-.2-.9.7-.4.8.4.5.1-.6-.6-1-.7-3.4-2.8-5.2-4.6-1.8-1.7-3.5-3.2-3.7-3.2-.3 0-2-1.5-3.9-3.3-3.5-3.3-19.8-16.3-30.3-24-8.1-5.9-29.8-20.1-40.9-26.7-4.9-3-9.2-5.7-9.5-6.1-.3-.3-2.4-1.6-4.7-2.8-2.4-1.2-4.3-2.3-4.3-2.6 0-.4 6 2 10.3 4.1 1.5.8 2.7 1.2 2.7.9 0-.2-2.3-1.6-5-3-2.8-1.4-4.8-3-4.5-3.5.4-.6-.1-.7-1.1-.3-1.3.5-1.5.3-.9-.7s.4-1.2-.9-.7c-1 .4-1.5.3-1.1-.3.7-1.2-14.3-8.3-15.7-7.4-.7.5-.8.2-.3-.6.6-1 .4-1.2-.9-.7-.9.4-1.5.3-1.2-.2.6-.8-7.7-4.4-10.1-4.4-.7 0-1.3-.4-1.3-.9 0-.4-.3-.7-.7-.6-.5.1-1.8-.3-3-1-1.3-.7-2.3-1-2.3-.7 0 .3-1.1-.2-2.5-1.1-1.4-.9-2.5-1.3-2.5-.9s-.6.2-1.4-.4c-.8-.7-2.2-1.3-3.2-1.5-1.1-.2-7.3-2.3-13.8-4.5-13.4-4.6-31.7-10.1-35.6-10.6-1.4-.2-2.5-.4-2.5-.5 0-.1-.9-.3-2-.5s-7.2-1.5-13.5-2.9c-40-8.6-74.4-11.5-112.5-9.5zM514.3 65.7c.9.2 2.3.2 3 0 .6-.3-.1-.5-1.8-.5-1.6 0-2.2.2-1.2.5z"/><path d="M573.8 71.5c-.3.4-4.4.9-9 1.1-4.5.3-10.3.7-12.8 1-2.5.3-5.8.6-7.5.7-1.6.1-3.6.6-4.3 1-.7.5-2.4.6-3.8.3-1.5-.4-2.4-.2-2.4.5s-1.1.9-3 .6c-1.6-.4-3.2-.2-3.6.4-.3.6-1.9.7-3.5.4-1.9-.4-2.9-.3-2.9.5s-.9 1-2.5.6-2.5-.2-2.5.5c0 .6-.9.9-2 .6-1.1-.3-2.3-.1-2.6.5-.3.5-1.5.8-2.5.5-1-.3-2.2-.1-2.5.5-.3.5-1.5.8-2.5.5-1.1-.3-1.9-.1-1.9.5s-1.1.7-2.5.4c-1.6-.4-2.5-.2-2.5.5 0 .6-.9.9-2 .6-1.1-.3-2-.1-2 .5s-.9.8-2 .5c-1.1-.3-2-.1-2 .5s-.9.8-2 .5c-1.1-.3-2-.2-2 .2 0 .3-3.3 1.5-7.2 2.5-54.3 13.9-125.9 49.5-174.8 86.9-50.2 38.4-98.1 91.6-125.7 139.7-33.5 58.3-51 121-53 189.8-.3 11.7-.7 21.1-.8 21-.2-.2-.6-2.6-1-5.3-.9-7.1-2-11.9-3.3-14.1-1-1.7-1.1-1.7-1.2.8 0 1.6-.4 2.8-.9 2.8-.9 0-1.5-7.2-3-34.5-2.1-37.8 8-84.1 28-128.4 8.5-18.8 9-20.2 4.9-13.1-8.4 14.4-20 41.1-27.9 64.4-7.9 23-14.7 58.6-15.8 81.8-.3 7.6-.9 13.5-1.3 13.3-1.3-.8-2.3 27.4-1.5 40.2.9 15 1.3 20.4 2 27.8 1.2 13.7 1.4 19.6.6 19-.5-.3-1.3-2-1.6-3.8-.4-1.7-2.3-8.5-4.2-15-1.9-6.6-3.6-12.6-3.8-13.5-.2-1-.8-3.1-1.4-4.7-.9-2.9-.9-2.9-1.1-.5-.1 1.4-.1 3.6 0 4.9.1 1.5-.2 2.1-.9 1.6-.6-.3-.9-1-.6-1.5.3-.5-.1-2-.8-3.2-.8-1.3-1.8-4.1-2.2-6.3-.5-2.2-1-4.7-1.2-5.5-.6-2.7-1.2-6.5-1.2-8.9-.1-1.6-.5-2.1-1.5-1.8-.8.3-2-.1-2.6-.9-.7-.8-.9-1.4-.4-1.4.4 0-.2-.9-1.4-2-1.2-1.2-2.2-3.2-2.2-4.5 0-1.4-.4-2.5-1-2.5-.5 0-1-.9-1-2.1 0-1.3-.4-1.8-1.2-1.3-.8.5-.9.2-.5-1 .4-1 .3-1.5-.3-1.1-.6.3-1.1.1-1.1-.4-.1-.6-.2-1.4-.3-1.9-.1-.4-.5-2.9-1-5.5-.4-2.7-.9-5.7-1.1-6.7-.8-3.9-1.7-20.2-2.1-36-.6-20.9-.7-22.6-1.8-23.7-.5-.4-.5.2-.1 1.6.4 1.4.3 2.1-.2 1.8-.5-.3-1.5 2-2.1 5.1-.6 3.1-1.3 6.8-1.6 8.1-3.3 15-3.9 51.4-1.2 72.4 4.4 34.3 12.8 64.8 29.4 106.2 3.3 8.3 6.8 16.5 7.7 18.3 1 1.8 1.5 3.5 1.2 3.8-.9.9-12.4-22.8-18.2-37.4-13.3-33.9-21.6-67-25.7-102.7-1.8-16.4-1.5-55 .6-72.5 2.4-20.3 5.9-38.6 10.2-53.1C68.2 370.5 76 341 76 340c-.1-1.1-6.3 15.1-10.1 26.5-6.5 19.3-13.7 46.8-15.5 58.5-.2 1.4-1.5 9.5-2.9 18-4.9 30.6-5.3 48.4-1.9 80.8 6.6 63.4 29.5 123.5 66.9 175.8 5 6.9 9.7 13.3 10.5 14.1.8.9 1.5 2.2 1.6 2.9.1.8 1.8 3.6 3.6 6.2 5.2 7.2 5.5 8 1.7 4.2-13.2-13.3-31.6-40.3-47.3-69.3-2.6-4.9-5-8.6-5.2-8.4-.3.2 1.3 4.5 3.5 9.6 2.2 5 3.6 9.1 3.3 9.1-.4 0-.2.4.4.8.5.4 2.9 4.3 5.3 8.7 4.6 8.8 3 7.1-7-7.5-7.5-10.9-19.8-32.5-27.6-48.5-3.4-7.1-5.1-9.8-4.7-7.5 1.1 6 10 32 14.9 43.4 32.4 75.5 83.7 133.9 165 188 12.4 8.2 16.7 10.6 19.3 10.6 2.5 0 7.9 2.7 20.4 10.1 34.5 20.6 66.8 31.8 105.8 37 18.6 2.5 38.7 2 50.9-1.2 7.8-2 23.1-2.6 23.1-1 0 .5-2.6 1.5-5.7 2.1-3.2.6-10.5 2.3-16.3 3.7-12 3-29.3 3.5-43.5 1.3-15.3-2.3-39.5-8.3-60.9-15.1-2.4-.7-2.6-.7-1.6.6 1.2 1.5 16.5 6.7 31.5 10.9 15.6 4.3 31.5 6.8 47 7.6 8.3.4 13.8.8 12.3.8-10.9.7 12.9 8.6 28.2 9.5l7.5.4-10.5-3.6-10.5-3.6 14.5-.8c15.8-.9 14.9-1.1 39.5 5.2 8.8 2.3 17.6 4.2 19.5 4.4 1.9.1 4.1.6 4.8 1.1.8.5 1.8.4 2.5-.3.6-.6 2-1.1 3.2-1 1.1 0 1.4.3.8.6-.7.2-1.3.9-1.3 1.3 0 .5 1.8.3 4-.5 3-1.1 5.9-1.2 11.8-.6 8.4.9 66 .6 81.2-.5 5.2-.3 10.9-.7 12.5-.7 2.6 0 11.4-.9 32.5-3.3 3-.3 11.6-1.7 19-3.1 7.4-1.3 15.1-2.6 17-2.8 1.9-.2 7.5-1.3 12.3-2.4 4.8-1.2 11.4-2.1 14.5-2.1 3.2 0 8.3-.6 11.3-1.4 7.3-1.9 21.6-4.3 30.9-5.1 4.1-.3 8.6-.9 9.9-1.2 1.5-.4 2.2-.2 1.8.4-.6 1 5.9-.4 22.5-4.8l8.8-2.3 5.2 5.6c5.9 6.3 18.2 13 27 14.9l5.2 1.2-10.9 5.5C798 937.6 775 944.1 746.2 946c-10.1.7-17.8 1.7-21.7 2.9l-6 1.9 4.5.4 4.5.3-4.2 1.3c-6 1.8-33.3 5.9-51.3 7.6-45.4 4.5-88.1 4.7-133 .6-14.7-1.4-38.4-4.8-43.2-6.2l-3.8-1.1 2.6-1.4c1.6-.7 5.9-1.3 10.5-1.3 6 0 7.9-.3 7.9-1.4 0-1 2.5-1.6 9.3-2.2 5-.4 10-.9 11-1 2.3-.2 3.5-1.4 1.4-1.4-1.2 0-1-.7 1.1-2.8 1.5-1.6 3.3-2.7 4-2.4.7.2 2-.2 2.9-.9 1.3-1.1 1.5-1.1.9-.1-.6.9-.2 1.2 1.6.8 1.2-.3 4.4-.8 7-1.1 2.6-.3 5-1 5.3-1.5 1.3-2.1-14.4-3.5-36-3.2-74.9 1-143.4-10.2-201-33-11.2-4.4-34.9-16.1-47.6-23.6-4.6-2.7-11.8-6.8-15.9-9.2-40.3-23-91-63.4-120.3-95.7C85.9 716.4 54 656.9 37 586.7c-5.9-24.4-11-55.4-11-66.8 0-2.6-.4-5.1-1-5.4-.5-.3-.8 0-.6.7.3.7.7 6.2 1.1 12.3 1 17 1.3 21.4 2.6 30.3 1.6 11.7.5 11.3-1.6-.5-1.9-11.1-2.3-12.7-2.4-9.6-.2 4.1 5 29.8 9 45.3 4.6 17.3 12.2 54 11.4 54.8-.3.3-.5-.3-.5-1.3s-.3-1.6-.6-1.3c-2.2 2.3 21 72.6 24.7 74.9.6.3 1 .9 1 1.3-.3 2.3 0 3.6.9 3.1.6-.3.7.1.4.9-.3.9-.1 1.6.6 1.6.6 0 .8.4.5 1-.3.5-.1 1 .5 1s.9.4.6.9c-.3.5.1 1.1.9 1.5.8.3 1.5 1.1 1.5 1.8 0 .9-.3.8-1-.2-2.6-4.1-.4 1.3 5.4 12.8 15.2 30.3 30.1 53.3 54.9 84.7 6.6 8.4 7 9.1 2.5 4.5-18.1-18.9-42.9-54.8-60.1-87-17.9-33.7-33.9-78.9-41.7-118.3-.7-3.2-1.4-5.6-1.6-5.4-.9.9 5.7 31.1 10.2 46.5 12.3 42.5 30.5 82.5 56 123 4.6 7.3 8 13 7.5 12.7-.6-.3-4.8-6.3-9.4-13.3-27.4-41.2-49.5-91.8-61.6-141-3.7-15.1-8-37.5-8.2-43.1l-.1-2.6-.8 2.5-.7 2.5-.6-2.5c-2.3-8.8-3.6-19.6-5.1-43-.2-3-.2 2.8 0 13 1.2 70.1 22.3 144.5 59.2 209.5 12.9 22.7 42.7 64 55.2 76.5.3.3 5.6 6 11.9 12.8 22.7 24.5 60.5 55.8 87.8 72.8 3.5 2.2 12.5 7.8 20 12.5 29.4 18.4 65.3 36.4 92.2 46.2 4.7 1.7 10.4 4.3 12.8 5.9 12.1 8.2 41.3 19.7 67.1 26.4 89.2 23.1 187.4 20.9 278.6-6.1 19.5-5.8 31-9.8 26.1-9-21 3.1-75 4-101.5 1.7-26.8-2.4-50.7-6-54.9-8.2-.9-.5-9.5-2.1-19.1-3.5-21.7-3.3-45.5-8.1-65.9-13.4-8.6-2.3-26.8-7-40.6-10.5-13.7-3.6-27.7-7.5-31-8.6-10.2-3.6-78.8-23.9-89.5-26.5-5.5-1.4-10.5-2.3-11-2-.5.3-5.3-1.6-10.7-4.3C293 944 276.8 939 267.7 939c-1.5 0-2.7-.4-2.7-1 0-.5 4.3-.8 10.8-.5 11.1.3 25.9 3.2 41.8 8.1 4.7 1.4 8.8 2.4 9 2.1.8-.8-3.2-3.6-10.9-7.7-9.2-4.8-15.3-8.5-16.1-9.9-.4-.5-2.1-1.3-3.9-1.6-2.6-.6-19-10.5-20.7-12.6-.8-1-5.5-3.3-6.3-3.1-.4.1-.6-.3-.5-1 .2-.7-2.2-2.1-5.3-3.2-6.8-2.5-27-15.6-26.2-16.9.4-.6.1-.7-.7-.2-.9.6-2.5-.5-4.9-3.3-2-2.2-10.1-9.5-18.1-16.2-37.1-31.2-72.6-67.2-90.8-92-5.3-7.3-8.3-10.9-6.8-8.3.4.7.4 1.3-.1 1.3-1.1 0-18.8-27.3-25.5-39.5-3.1-5.5-6.8-13.2-8.2-17-1.5-3.9-3.8-9.5-5.1-12.5-2.1-4.8-3.9-9.4-8.5-21.5-1.5-4.1-.8-3.1 4.8 6.1 9.7 15.8 21.5 34.1 28.5 43.9 16.8 23.5 40.7 50.9 60.5 69.2 6.4 5.9 16.9 15.7 23.2 21.8 23.8 22.7 33.5 31.4 52 47 4.5 3.8 9.7 8.3 11.4 9.8 4.2 3.9-23.1-16.6-32.4-24.3l-7.5-6.2 5.5 5.4c12.5 12.1 21 19.4 30.7 26.4 5.6 4.1 10.5 7.4 10.8 7.4.3 0 .1-.9-.5-2.1-1-1.8-.9-1.9.7-1.1 8.9 4.9 49.5 31.2 54.6 35.5 3.6 3 11.8 7.4 20.7 11 12.6 5.1 22 9.9 21.3 11-.4.6-.1.7.7.2.7-.4 1.5-.3 1.9.4.4.6 5.8 2.9 12.1 5.1 6.3 2.2 11.4 4.4 11.3 4.9-.3 1.1 4.6 2.6 12.2 3.7 2.8.4 4.4.9 3.8 1.1-.7.3-10.7-1-22.4-2.7-11.6-1.7-22-3-23.2-2.8-4.3.7 57.9 9.9 64.8 9.6 3-.1 3-.1-.5-.9-4.7-1.1 5.7-.3 21.5 1.6 10.1 1.2 15.4 1.3 33.4.3 19.2-1.1 21.1-1.4 18.5-2.6-2.6-1.2-2.3-1.2 3.9-.7 3.8.3 11.9 1.4 18 2.5 33.1 5.7 87.1 8.5 143.7 7.4 22.8-.4 58.8-.8 80-.9 23.8-.1 41.3-.6 45.7-1.3 11.5-1.9 35.5-8.7 44.8-12.7 1.7-.7 7.1-2.5 12-4 5-1.5 11-3.8 13.5-5.1 10.2-5.4 32.7-14 33.7-13 .6.6-11.7 8.1-20.2 12.3-4.4 2.2-12.3 5.7-17.5 7.7-5.2 2.1-12.3 5.3-15.6 7.2-3.4 1.8-9.9 4.9-14.4 6.8-9.3 4-12 6-12 9 0 1.6-1.6 3-5.7 5.3-6.8 3.7-19.7 9-26.8 10.9-7.2 2-23.9 1.8-46.5-.6-21.8-2.3-41.6-3.3-75-3.6-12.4-.1-35.6-.8-51.6-1.5-20.6-.9-30.6-.9-34.5-.2l-5.4 1 9.5.2c14.9.2 96.2 4.2 127.8 6.3 19.5 1.3 21.3 2 15 5.8-3.5 2.1-14.1 4.8-22.8 5.8l-5.5.6 4.5.8c3 .5 7.3.3 13.3-.8 4.8-.9 9-1.4 9.3-1.1.3.3 2.6 0 5-.8 2.4-.7 4.2-1 3.9-.5-.2.4-2.6 1.3-5.2 2-2.7.7-5.7 1.9-6.9 2.6-1.2.7-5.7 2-10 2.9-4.3.9-9.9 2.2-12.4 3-2.5.7-6.2 1.7-8.4 2-6.2 1-3.5 1.6 6 1.4 4.9-.1 10.8-.2 13.2-.1 2.8.1 4-.3 3.6-1-.5-.7-.2-.8.9-.2 2.9 1.7 25.5-.4 34.2-3 11.8-3.6 16.7-4.4 29.7-5 17.7-.7 27.4-4.2 38.9-14 1.9-1.7 5.7-4.9 8.2-7 2.6-2.1 4.7-4.5 4.7-5.2 0-.8.4-1.4.8-1.4.5 0 1.9-1 3.2-2.3 1.4-1.2 2.8-2.1 3.3-1.9.4.1 2.1-.5 3.7-1.3s3.9-1.5 5.2-1.5c1.3 0 3.2-.6 4.3-1.4 1.1-.7 3.8-1.6 5.9-1.9 2.1-.3 4.8-1.5 6-2.5 1.2-1.1 7.9-4.7 15-8.1 12.7-6.1 18.9-9.8 27.6-16.6 2.5-1.9 5.4-3.5 6.6-3.5 1.1 0 4.7-1.3 8-2.9 3.2-1.6 7-3.2 8.4-3.6 1.4-.5 4.2-1.9 6.2-3.1 4.6-2.9 11.7-5.8 12.4-5.1.7.7-16 16-27.6 25.2-11.6 9.3-34.5 24.6-46 30.8-4.7 2.5-12.7 6.2-17.9 8.3-5.2 2-11.7 5-14.5 6.6-15.1 8.7-48.6 21.1-70.7 26.3-12.7 2.9-11.1 3.2 2.9.5 68.3-13 129.2-45.9 181.2-98 25.3-25.3 41-44.1 57.8-69.1 37.7-56.2 65-124.7 76.2-191.5 1.6-9.4 3.6-23.6 4.5-31.5 1.9-17.5 3.1-63.6 1.9-77.4l-.8-10-.8 11c-2.4 34.3-12 76.2-18 78.4-2.4.9-8.1 14.2-13.8 32.3-8.2 26-16.5 45.2-25.3 58.3-4.7 7-9.6 12.5-11.3 12.5-.6 0-2.8 1.3-4.9 3-2 1.6-4.1 2.8-4.5 2.5-.4-.3-.8 2.8-.7 6.8 0 5.2-.8 9.5-2.8 15.7-2.5 7.8-3.3 9.1-11.4 17.6-10.3 11-13.1 13.3-16.5 13.6-2.5.2-2.6.5-2.6 6 0 9.8 3 13.8 10.3 13.8 1.5 0 2.7.3 2.7.7 0 3.6-15.7 21.2-31.3 35.1-36.1 32.3-72.2 50.2-101.2 50.3-11 0-16.8-1.2-24.8-5.2-6.5-3.3-19.3-14.7-18-16 .5-.5 4.8-2.4 9.8-4.4 4.9-2 14.4-6.3 21-9.5s14.7-6.9 18-8.1c8.3-3.2 14.3-6.9 27-17 13.1-10.4 14.6-11.9 17.9-18.4 1.4-2.8 4.8-8.2 7.5-12 5-7.2 18.4-29.7 26.1-44 2.4-4.4 5.8-10.3 7.5-13 1.7-2.8 4.4-8.2 5.9-12 1.5-3.9 5.3-12.9 8.4-20 3.2-7.5 5.6-14.5 5.6-16.7 0-2 .4-3.4.7-3.2.4.2.5-.4.2-1.4-.2-1 .7-3.4 2.1-5.5 1.4-2 2.3-3.7 2.1-3.7-.3 0 .4-1.6 1.5-3.5 1.1-2 2-4.2 2-5 0-.8.4-1.5.8-1.5 1.1 0 5.7-13.8 7.6-23 2.2-10.9 2.8-15.1 4.1-27.5.3-3.3 1.5-9.8 2.6-14.5 2.5-10.8 4.3-32.3 3.1-37.6-.5-2.2-.8-5.1-.6-6.5.1-1.3.9-8.5 1.8-15.9.8-7.4 1.5-19.7 1.5-27.3.1-7.5.3-14.7.6-16 .3-1.2.7-3.6.9-5.2.3-2.9 2.2-10.3 3.4-13.5.8-2 1.1-3.7 1.6-9 .3-2.5 1-6.1 1.6-8 .5-1.9 1.1-7.8 1.1-13l.1-9.5 1.9 9c5.7 27.6 8.2 55 8.3 90 0 24.5.2 26.4.9 15.5 1.8-28.5-1.2-71-7.4-104.2-4.4-23.6-14.6-61.6-27-100.7-1.6-5.1-2.8-9.5-2.6-9.8.3-.2 2.4 4.4 4.8 10.1 2.3 5.8 4.4 10.4 4.6 10.2.4-.4-7.2-20.2-11.1-29-1.4-3.3-2.4-6.1-2.1-6.4.2-.3 1.1 1 1.9 2.9 7.6 19 13.1 31.8 13.3 31.5.2-.2-1.2-4.6-3.1-9.7-1.9-5.2-3.6-10.1-3.8-10.9-.2-.8-.5-1.7-.8-2-.3-.3-1.9-3.7-3.5-7.5-3.8-9.4-15.4-33.2-20.5-42.5-2.3-4.1-3.7-7.1-3.2-6.5 2 1.9 14.7 23 17.1 28.2 1.4 2.9 2.6 5.1 2.8 5 2.2-2.2-20.7-45.9-28.7-54.7-1.7-1.9-8.4-10.9-14.8-19.9-31.7-44.5-66-78.4-110.7-109.6-14.7-10.2-21.7-15.9-14-11.5 5.4 3.2 23.4 15.5 38.5 26.5 16.7 12.1 25 17.7 25 16.9 0-.4 1.4.5 3 2.1 1.7 1.6 3 2.6 3 2.2 0-1.6-32-27.6-45.8-37.1-4.5-3.2-8-6.2-7.6-6.7.3-.5.7-.9 1-.9.3 0 .3.4-.1.9-.8 1.4 1.5 2.5 2.6 1.2.5-.6.6-.9.3-.6-.4.3-1.2-.2-1.8-1-.6-.9-2.1-1.7-3.4-2-1.3-.2-4.6-1.8-7.3-3.5-2.7-1.6-5.3-3-5.8-3s-1.4-.6-2-1.4c-1-1.2-5.5-2.8-8.8-3-1.9-.2-2.8-1.6-.9-1.6 1 0-1.6-1.8-5.8-4-4.1-2.2-7.9-4-8.3-4-.4 0 .1.6 1.2 1.2 6.6 3.6 10.6 6 10.3 6.3-.7.7-25.3-12.2-25.1-13.2.2-1.1-2.4-2.3-19.2-8.8-15.1-5.8-19.6-7.7-19.2-8.2.2-.2 2.3.4 4.7 1.2 2.4.8 4.5 1.3 4.7 1.1.2-.2-1.7-1.1-4.3-2-3.3-1.1-5.1-1.3-6-.5-.8.7-1.4.7-1.9-.1-.3-.5-.1-1 .6-1s.9-.3.6-.6c-.4-.4-1.3-.1-2.2.6-1.3 1.1-1.9.7-1.7-1.1.1-.4-.8-.4-2-.1-1.6.4-1.9.2-1.3-.9.8-1.2.6-1.2-.8 0-1.5 1.2-2.1.9-1.9-1 .1-.4-.8-.4-2-.1-1.4.3-1.9.1-1.4-.6.5-.8.2-1-.8-.6-.9.3-1.3 1.1-1 1.8.3.6-.1.3-1-.8-.8-1-2.2-1.6-3.1-1.3-.8.4-1.5.2-1.5-.4 0-.6-.7-.9-1.5-.5-.8.3-1.5.1-1.5-.4 0-.6-.5-1-1.1-1-.5 0-.7.6-.3 1.2.4.7-.2.4-1.4-.6-1.2-1.1-2.5-1.6-2.9-1.3-.3.4-1.3.1-2.1-.6-1.3-.9-1.4-.9-.8 0 .4.7.2 1.3-.4 1.3-.6 0-1.3-.7-1.6-1.5-.4-.8-1-1.5-1.6-1.5-.5 0-.6.5-.2 1.2.5.8.2.9-1 .5-1-.4-2.3-.7-2.9-.7-.7 0-.6-.4.3-1 1.1-.7.5-.8-2-.4-2.8.4-3.2.3-2-.6 1.2-.9 1.1-1-.6-.5-1.2.3-7.7-.5-14.5-1.9-12.2-2.4-16.5-3.1-26.4-4.2-2.7-.3-5.5-.7-6.2-.9-.7-.2-1.5 0-1.8.5-.4.6-1.2 1-1.8 1-.7 0-.6-.4.3-1.1 1.1-.7-.2-.9-4.7-.7-3.4.3-6 .1-5.7-.4.3-.4-1.4-.8-3.8-.7-3.3 0-3.8.2-2.3.9 1.5.6 1.6.9.4.9-.9.1-1.8-.1-2.1-.4-.8-.8-32.2-1.7-33-1zm69.7 29.5c25.8 2.7 34.7 4.2 50 8.5 8.8 2.5 16.7 4.7 17.5 4.8.8.1 1.7.4 2 .7 1.1 1.1 7.7 3.3 10.3 3.4 1.5 0 3.1.7 3.6 1.4.4.7 1.2 1.2 1.7 1.1 1-.2 3.1.4 8.2 2.7 1.8.8 4.3 1.4 5.6 1.4 1.2 0 2.6.3 3 .7.4.5 1.1.8 1.4.9.4 0 1.6.4 2.7.8 10.9 4.2 12.5 5 12.6 6.5 0 1 .2 1.2.6.3.3-.9 2.8 0 8.4 3 4.3 2.3 7.9 4.6 7.9 5.1 0 .4.4.6 1 .2.5-.3 1.8.2 2.8 1.2 1 1 2.5 1.9 3.2 2.1.8.2 1.9 1.1 2.7 2 .7.9 1.3 1.3 1.3.9 0-1.2 3.3.7 25.9 15.7 11.7 7.7 21.8 14 22.3 13.8.5-.1.7.2.4.7-.3.5.4 1.5 1.7 2.3 3.1 2 5.9 3 5.2 1.8-1.1-1.8 1-1.1 4.5 1.5 1.9 1.4 3.7 2.5 4.2 2.5 2.1 0 24 18.5 31.4 26.5 9.5 10.4 31.4 37.4 31.4 38.8 0 .5 2 3.4 4.5 6.6 2.5 3.1 4.5 6.1 4.5 6.5 0 .4 1.3 2.6 2.9 4.9 2.6 3.8 12.5 21.5 12.7 22.7 0 .3 2 4.5 4.3 9.5 5.6 11.9 12.6 33.2 15.3 47 2.8 14.3 3 29.9.5 37.2-2.9 8.3-3.7 7.4-5.5-6.2-.9-6.7-.9-6.4-1.2 7-.1 8.3-.5 13-.9 11.5-1.1-3.7-4.1-9.2-6.1-11.5-1.3-1.5-1.9-4.6-2.4-11.5-1.6-21.6-6.6-46.1-9.8-48.1-.6-.4-.7-1.2-.4-1.8.4-.6.2-1.1-.4-1.1-.7 0-1-.6-.7-1.4.9-2.4-6.8-23.2-13.4-36.1-11.8-23.3-29.9-47.4-51.9-69.5-15.4-15.4-17.6-17.5-28.3-25.9-3.7-2.9-6.4-5.8-6-6.3.3-.7.1-.8-.6-.4-.6.4-2.8-.5-4.9-2.2-5-3.9-31-21.1-33.6-22.3-1.2-.5-3.7-1.9-5.6-3-19-11.5-67.7-31.7-80-33.2-1.9-.3-9.6-2.1-17-4.1-14.3-3.8-16.4-4.2-14-2.5 1.2.8 1.1.9-.5.5-5.7-1.4-30.1-4.7-45.5-6.2-23.4-2.2-62.4-1.5-82 1.5-20 3-53.1 10.8-55.4 13.1-.5.5 2 0 5.5-1 25.2-7.7 67.6-13.3 94.4-12.5 25.5.8 52.4 3.1 63.5 5.5 2.5.5 6.3 1.2 8.5 1.5 2.2.3 4.8.8 5.7 1.1.9.3 2.6.7 3.7.9 1.2.3 2.9.7 3.9 1 5.5 1.4 13.9 3.6 14.9 3.8.7.2 1.5.6 1.9.9.3.4 1.2.4 2 .1.8-.3 1.4 0 1.4.6s.7.8 1.5.5c.8-.4 1.5-.1 1.5.5s.7.8 1.5.5c.8-.4 1.5-.1 1.5.6s.7 1 1.5.6c.8-.3 1.5-.1 1.5.5s.5.7 1 .4c1.5-.9 5.1.5 4.4 1.7-.4.6.1.8 1.6.3s2-.3 1.6.3c-.4.7.4.9 2.1.8 1.6-.2 3.3 0 3.8.4.6.5 4.6 2.2 8.9 4 10.7 4.2 12.2 5 10.7 6-.9.5-.8.9.4 1.3 1 .4 1.4.3.9-.4-.4-.8.1-.9 1.7-.4 3.1.9 33.2 16.5 40.2 20.8 2.9 1.7 6 3.6 6.9 4.2 10.3 6.1 41.7 31.1 52.6 41.8 2.6 2.5 3.9 3.3 3.3 2-2.2-4.4-32.6-31-44.8-39.1-2.9-1.9-5.3-3.7-5.3-3.9 0-.5 1.4.3 6.7 3.9 5.2 3.5 6.8 3.6 2.8.1l-3-2.6 3 1.8c4.5 2.7 20.9 15.1 31 23.4 14.3 11.8 37.8 36.5 54.6 57.4 9.3 11.5 33.3 55 37.4 67.7 1 3 2.2 6 2.6 6.6.5.6.7 1.3.4 1.5-.2.3.3 2.9 1.1 5.9.8 3 1.7 6.8 2 8.5.3 1.6.7 3.6 1 4.4.6 1.7 1.9 16.5 1.8 20.6-.2 10.3-2.8 46.3-3.5 47.5-.6 1.2-1 .8-1.9-1.5-.6-1.7-2.1-4-3.3-5.3-2-2.1-2.1-3.3-2.3-23.5-.1-15.7-.6-23.3-1.9-29.2-.9-4.4-1.9-8.2-2.1-8.4-1.4-1.5-1.7 2.9-1.5 23.8 0 6.9-.1 12.6-.2 12.7-.7.7-10.7-35-11.8-41.5-.6-4-2.2-10.3-3.6-14-1.4-3.6-2.7-7.6-3-8.9-.3-1.2-.9-2.2-1.3-2.2s-.7-1.3-.8-2.9c-.1-3.4-4.8-13.9-5.4-12.1-.2.7-1.6-1-3.1-3.6-4.6-8-12.7-21.8-13.2-22.2-.2-.3-.1 1.2.2 3.2.5 3.1.3 3.6-1.4 3.6-1.1 0-2.8-.9-3.9-2.1-1-1.1-2.7-2.5-3.6-3-2.7-1.4-2.3 1.7.5 4.4 3.3 3.4 5.4 7 5 8.5-.3.6-1 .9-1.6.5-.6-.4-.8-.1-.5.8 4.4 11.1 6.2 14.9 6.9 14.9.5 0 .9-.5.9-1.2 0-.6 1.2-.1 2.6 1.3l2.6 2.4-.7-4.5c-.4-2.4-.9-4.8-1.1-5.2-.2-.3 0-.9.5-1.2.9-.6 7.2 14.7 10.4 25.4 10 33 17.6 64.7 16.1 67.1-.4.7-.3.9.3.6.6-.4 1.4 0 1.7.9.3.8.2 1.2-.4.9-1.5-.9-1.3-.4 2.6 8.7 1.9 4.5 4.2 11.2 5 14.8 1.6 6.5 2.1 26.1.8 28.1-.4.6-1 7.7-1.3 15.8l-.7 14.6-1.5-5c-1.4-4.3-1.7-4.6-2.2-2.5-.3 1.4-.9 5-1.2 8-.3 3-.8 6.6-1.1 7.9l-.5 2.3-1.9-2.3c-1.4-1.5-2-3.7-2-7.2 0-2.8-.4-6.4-.9-8.1-4.5-14.5-4.6-15.1-2.5-25.4.4-2.1.3-3.2-.5-3.2-.6 0-1.1.6-1.1 1.4 0 .8-.3 1.7-.7 1.9-.5.3-.8-5-.9-11.6 0-6.7-.4-14.8-.8-18-.7-5.1-.9-5.6-2-4.1-1.2 1.6-1.4 1.5-2-.9-.3-1.5-.4-3.8 0-5.2.7-2.8-2.8-14.9-5.1-17.9-1.5-2-1.5-2-1.6 0 0 1.8-.1 1.8-.9-.1-.5-1.2-.6 1.6-.3 7 .3 4.9.3 8.8 0 8.5-.3-.3-2.6-7.8-5.2-16.7-2.7-8.9-5.1-16-5.5-15.8-.3.2-2.4-3.3-4.6-7.8-2.1-4.5-4.3-8.5-4.7-8.8-.5-.3-.8-.8-.8-1 .3-1.1-2.4-6.9-3.2-6.9-.4 0-.6-.3-.3-.8.2-.4-.2-1.8-1-3.2-.7-1.4-1.3-1.8-1.4-1.1 0 1.2-.3 1.2-1.2.3-1-1-1-1.5-.1-2 .8-.5.7-1.4-.3-3.2-1.2-2-1.4-2.1-.9-.4.4 1.4.1 2.1-1 2.1-.8 0-1.5-.7-1.5-1.4 0-.8-.6-2.1-1.4-2.9-.8-.7-1.6-1.9-1.9-2.6-.2-.7-.6-1.1-.9-.8-.6.6 8.1 19.4 9.3 19.8.4.2.5 1 .2 1.9-.4 1-.2 1.4.5.9 1.3-.8 2.6 2.9 1.6 4.5-.4.8-.3.9.4.5 1.3-.8 4 4.5 10.7 20.9 6.9 16.7 15.8 51.2 20.5 79 5.7 33.4 4.3 78.4-3 97.8-1.8 4.8-2.6 5.8-4.3 5.6-3.8-.2-4.3 0-5.6 2.8-1.7 3.6-3.2 1.2-2-3.1.5-1.7.9-5.9.9-9.3 0-3.5.4-6.3 1-6.3.5 0 .9.8.8 1.7-.3 4.6.3 8.6 1.2 7.7 3.8-3.8-1.5-85.6-6.9-105.4-.5-1.9-1.7-7.1-2.6-11.5-2.7-12.4-6.2-26.3-9-34.5-1.4-4.1-2.3-6.4-2-5 10.1 48.2 12.2 72.7 10.5 118.2-1.1 30.6-3 43.5-9.1 63.1-6.3 20.2-8.8 25-14.6 28.6-2.6 1.7-5.4 3.1-6.1 3.1-1 0-4.9-6.8-5.7-10-.3-.9-1.8-4.4-3.8-9-1.2-2.5-2-4.9-1.9-5.3.1-.4-.5-1-1.3-1.3-1.1-.5-1.3-1-.5-1.9.8-.9.8-1.5 0-2-.6-.3-.7-1.2-.3-1.8.4-.7.8-1.7.9-2.2.5-2.5 1.6-8.1 1.9-9.5.2-.8.4-2.3.4-3.3.1-2.4 2.1-2.2 2.1.3 0 1.1.3 2 .8 2 .4 0 .6-1.8.4-4-.3-2.5 0-4 .7-4s1.1-3.2 1.1-9.6c0-6.1.4-9.3 1-8.9.7.4 1-8.3 1-25.5 0-25.5-.1-26.2-2.5-32.2-1.8-4.3-2.5-8.1-2.5-12.7-.1-9.3-1.6-21.1-2.9-22.4-.7-.7-1.5-.6-2.6.3-1.2 1-1.5 1-1.6-.1-.3-2.3-1.7 10.2-1.8 15.6 0 3.4.2 4.5.9 3.5 2.3-3.7 4.3 12.7 2 17.1-.8 1.4-1.7 1.8-3.5 1.3-2.9-.7-3.8 1-5 9-.6 4.8-.6 4.9 1.2 3.5 1-.7 2.4-2.1 3.1-2.9 1.4-1.7 1.6-2.9-1.9 13.5-1.2 5.5-3.2 13.3-4.5 17.4-1.6 4.8-2.4 9.5-2.3 13.5 0 3.4-.4 7.4-1.1 9.1-1.4 3.7-1.1 14 .6 18.2.7 1.7 1 3.4.6 3.7-.3.3 0 .6.7.6s.9.4.6 1c-.3.5-.1 1 .5 1 .7 0 1 .6.7 1.4-.3.8 0 2 .8 2.6.8.6 1.2 1.7.9 2.3-.2.7.7 2.4 2 3.8 1.8 2 2.2 2.9 1.3 3.8-.8.8-.8 1.1.2 1.1 1.1 0 1.1.3.1 1.5-.7.9-1.4 2.3-1.5 3.3-.1.9-.5 2.6-.9 3.7s-1.7 4.5-2.9 7.5c-1.1 3-2.5 6.4-3.1 7.5-.6 1.1-1.1 2.2-1.1 2.5-.2 1.2-4 7.7-7 12-1.8 2.6-4.8 7.5-6.6 11-1.8 3.5-4.8 8.3-6.6 10.7-1.9 2.4-4.5 6.8-5.8 9.6-3 6.5-9.9 18.1-13.2 22.5-1.3 1.8-7.2 6.9-13.1 11.3-12.4 9.3-33.2 19.9-52.2 26.4-6.9 2.4-19 6.6-27 9.3-23.5 8.2-45.4 12.3-64 12.1l-9.5-.2 12.5-1.2c27.6-2.7 28.2-4 2.2-4.1-23.7-.1-33.1-1.3-58-7.5-10.5-2.6-16.7-3.7-17.1-3-.8 1.2-13.2-4.1-23.7-10.1-30.6-17.6-50-34.3-86.9-74.7-8.5-9.3-.8-2.8 17.5 14.7 19.1 18.4 31.1 28.2 48.3 39.5 13 8.6 17.4 11 31.5 17.2 10.8 4.8 12.8 5.4 9.6 3.1-1.1-.8 2.3-.2 8.1 1.5 12.3 3.6 29.6 5.4 53 5.4 17.6-.1 26-1.2 39-5.5 3.3-1 13.2-4 22-6.5 46.9-13.5 76.6-39.7 100.5-88.8 8-16.2 12-28.4 12-36 0-3.2.3-3.7 1.4-2.8 1.7 1.4 2.5.5 6-7 4.8-10.3 7.2-20.2 8.5-35.3 1.2-13.1.3-15.1-4.6-10.5-1.6 1.6-2.6 1.9-3.5 1.1-.7-.6-1.7-1.1-2.3-1.2-.5 0-.9-2.3-.9-5 .2-5.8-.5-6.2-2.6-1.7-.9 2-2.4 3.3-3.7 3.5-1.7.3-2.3 1-2.4 3-.2 4.2.2 6.6 1.2 7.7.5.5.9 2.3.9 4 0 3.3-4.5 8.9-8.1 10-1 .4-1.9 1.5-1.9 2.6 0 2.3-3.8 7.3-12.1 16-5.4 5.5-7.9 7.1-7.9 5 0-1.8 6.2-18.7 8-21.6 1-1.7 2.1-4.6 2.5-6.5.4-1.9 1.1-4 1.6-4.6 1.2-1.4 2.7-13.1 1.9-14.3-1-1.8-5.9 4.5-6.9 9-1.5 6.3-5 15.1-6.9 17.3-.9 1-3.6 2.7-5.8 3.7-3.9 1.8-4.4 2.6-9 13-2.7 6.1-6 12.3-7.5 13.7-1.4 1.5-4.5 5.5-6.7 8.9-15 22.3-38 39.6-60.7 45.4-14.3 3.7-32.3 2.9-48.5-2.3-13.6-4.3-24.1-10.4-47.3-27.3-5.8-4.3-11-7.1-15-8.4-5.9-1.8-11.1-6.1-9.4-7.7 1.5-1.5 12.7 2.3 26 8.8 12.9 6.3 18.7 8.1 18.7 5.9 0-2.5-2.1-6-3.8-6.5-2.1-.7-6.2-3.9-6.2-4.9 0-.3 2.5.3 5.5 1.3 3.1 1.1 6.3 1.6 7.2 1.3 1.1-.4 1.4-.3.9.5-.4.7-.5 1.2-.2 1.2.2 0 1.3.3 2.3.6 1.5.5 1.5.4.3-.5-2-1.4 0-1.4 3.7 0 2.8 1.1 4 1.4 9.8 2.5 13.2 2.5 13.9 2.4 5.1-1.1-10.7-4.2-20.8-7-29.3-8-7-.8-6.7-.5-10.8-12-4-11.1-17.5-33.9-27.8-47-9.7-12.4-19.9-22.7-34.9-35.2-4.3-3.5-20.6-14.3-21.8-14.3-.5 0-1-.5-1-1 0-.6-.8-1-1.9-1-1 0-2.4-.7-3.1-1.5-.7-.8-1.6-1.2-2.1-.9-.5.3-.9.1-.9-.4 0-.6-1.2-1.3-2.7-1.7-1.5-.3-3.1-1.1-3.4-1.7-.4-.6-1.5-1.2-2.6-1.3-3.2-.3-6.3-1.6-6.3-2.7 0-.6-1-.8-2.2-.5-2.6.7-4.8-.8-4.8-3.3 0-1.3-1.1-2-4-2.5-2.1-.4-4.3-.4-4.9-.1-.5.3-1.2-.1-1.5-1-.4-1-.2-1.3.7-.8.8.5.7.2-.2-.9-.7-.9-1-1.7-.6-1.7.5 0-.2-.8-1.3-1.9-1.2-1-1.8-2.1-1.5-2.5.4-.4 0-.4-1 0-.9.3-1.7.1-1.7-.4 0-1.6 7.2-16.2 7.9-16.2.4 0 1.2 1.3 1.8 2.9.9 2.6.9 2.9-.6 2.4-1.4-.4-1.4-.3-.1.6.8.6 1.9 1.1 2.3 1.1 1 0 .2-8.8-.8-9.8-.5-.4-.5-.1 0 .7.5.9.4 1.2-.3.7-1.3-.8.8-5.5 5.8-12.9 4-6 19.3-20.5 32.9-31.2 14-11 15-13.5 7-17.5-2.5-1.3-3.9-2.7-3.9-4 0-1-.5-2.2-1-2.5-1.6-1-13.9-2.7-18.5-2.6-4.3 0-4.1-.1 3.5-3.3l3.5-1.4-3-.1c-1.6 0-5.9.6-9.5 1.4-9.6 2.1-11.4 1.7-4.2-.9 8.3-3.1 8.9-4 2.2-3.3-14 1.4-48.3 15.5-73.9 30.3l-6.5 3.7 2.2-3.6c3.1-5.4 9.6-14 18.2-24.2 9.8-11.6 10-12 6.6-11.1-3.3.8-3.6-1.7-.3-3.8 7.7-5 42.3-14 69.2-18 13-1.9 40.2-3.6 48.5-3.1 35.5 2.6 58.7 8 86.5 20.3 30.7 13.5 59.7 37.3 78.5 64.3l4.4 6.4-4.1-3.7c-2.3-2-5.2-4.3-6.5-5.1-3-1.9-6.9-3.1-6.7-2 .3 1.1-1 8-2.3 12-.6 2.1-1.6 3.3-2.6 3.3-1.6-.1-1.6-.2-.1-1.3 1.4-1 1.4-1.4.3-2.5-.8-.7-1.4-.8-1.4-.2 0 .5-.7 1-1.5 1-.9 0-1.8.7-2.2 1.6-.4 1.1-.8 1.2-1.3.4-.5-.8-1.1-.6-2 .5-.9 1.1-.9 1.5-.1 1.5.7 0 .9.5.6 1-.4.6-1.1.7-1.7.4-.7-.5-.9-.1-.5.9.3 1 .3 1.7-.1 1.7-2 0 .1 10.5 3.4 17.1 1.7 3.5 2.1 5.6 1.7 8.7-.4 2.9 0 5.7 1.3 9 1 2.6 1.7 5.1 1.5 5.7-.2.5-.5 1.8-.7 2.9-.2 1-.7 2.3-1.2 3-.5.6-1.2 2.1-1.5 3.4-.4 1.8-.2 2.2 1.1 1.8 1-.3 3.3.9 5.7 3l4 3.5-3.9-2.2-3.8-2.2.6 2.4c.4 1.3 3.2 4.7 6.3 7.6 3 2.8 5.2 5.6 4.9 6.1-.9 1.4 5 3.2 10.5 3.2 3.6 0 5.5-.6 7.8-2.6 2.3-1.9 3.7-2.4 5.3-1.8 6 1.9 13.4-1 14.1-5.5.2-1.4.5.8.6 5 .1 8.9-1.7 15.6-8.8 32.3-6.4 15.2-15.8 30.8-22.9 38.1-2.2 2.2-1.9 4.7.4 3.8 3.3-1.2 1 2.9-4.3 7.8-3.2 2.9-5.1 4.8-4.2 4.1 1.2-.9 2.1-.6 4.6 1.7 3.8 3.5 4.8 3.1 14.1-6 7.3-7.1 14.2-16.6 18.1-25 5.8-12.3 8.3-15.7 13.1-18 6.8-3.2 7.7-4.4 9.1-12.2 1.1-6 1.4-6.7 1.9-4.2s.7 2.7 1.3 1.2c.4-1 .7-3.4.7-5.3 0-5.6-3.1-21.8-4.5-23.4-.7-.8-1.6-3.8-2-6.5-.6-4.1-.9-4.6-1.6-3-.7 1.4-.8.5-.4-2.7.2-2.6 0-6-.6-7.5-.6-1.6-1.4-4.8-1.9-7.3l-.8-4.5-.1 5.7c-.1 4.9-.4 5.7-2 5.5-1.6-.1-1.9-1.2-2.5-7.4-.3-4-.3-7.9 0-8.8.4-.8.1-1.5-.6-1.5-.8 0-1-1.3-.5-4.3.4-3.1.3-3.8-.4-2.7-.8 1.1-1 .8-.5-1.5.6-3.4-2.3-15.8-6.2-26.5-2.2-5.7-2.4-7.3-1.4-8.5 1.1-1.4 1.5-1.4 3.1.1 1.8 1.6 1.8 1.5.3-3-.9-2.6-4.9-11.2-9-19.1-4-8-6.8-14.5-6.2-14.5 1.2 0 2.7 1.7 6.7 7.8 2.2 3.2 3 3.8 3.5 2.7.4-1.1.2-1.4-.6-.9-.8.5-.9.2-.5-1 .4-.9.3-1.5-.2-1.2-1 .7-2.4-2.4-1.5-3.3 1.2-1.2 5.4 5.6 9.3 14.9 4.7 11.2 6.6 18.7 8.6 33l1.5 10.5-.5-8.5c-.3-4.7-1.8-13.9-3.5-20.5s-3.3-13-3.5-14.1c-1.9-8.5-9.8-25-17.3-36.4-3.1-4.7-5.7-9.2-5.7-10-.1-.8-.6-1.4-1.1-1.3-.6.1-3.5-2.8-6.5-6.4-10.2-12.6-13.1-15.3-26.5-24.3-16-10.8-31.8-18.7-46.5-23.5-13-4.2-34.6-8.3-48.9-9.3-14.2-1-43.4.2-54.9 2.2-5.2.9-9.6 1.5-9.8 1.3-.5-.6 6.1-3.7 7.8-3.7.7 0 3.2-1 5.7-2.1 5.8-2.8 22.1-4.8 39.8-4.9 16.5 0 27.8.9 24.9 2.1-1.4.5-.7.8 2.4.8 15.5.3 60.1 10.7 59.4 13.9-.1.5 1.9 1.7 4.5 2.6 5.4 2 13.3 5.9 12.8 6.4-.2.2-2.1-.4-4.1-1.2-7.3-3.1-4.8-1.5 7.5 4.7 6.9 3.4 14.1 7.4 16.1 8.9 2 1.6 3.9 2.5 4.3 2.1.4-.4.4 0 0 1-.3.9-.2 1.7.3 1.7s3.7 2.5 7 5.5 6.3 5.1 6.7 4.8c1-1 5.2 3.3 13.4 13.7 4.2 5.2 7.8 9.7 8.1 10 .4.3 3.3 4.4 6.5 9.2 5.9 8.8 7.1 10.2 5.9 7.1-.5-1.1-.3-1.4.6-.9.8.5.7-.3-.4-2.3-.9-1.9-2-2.9-2.7-2.5-.8.5-.9.1-.5-1 .4-.9.3-1.5-.2-1.2-1 .7-2.5-2.3-2.2-4.3.1-.7-.3-1-.9-.6-.6.3-1 .3-.9-.2.4-2.1-.2-3.4-1.3-2.7-.6.4-.8.3-.5-.3.7-1-5.1-8.8-15.2-20.3-3.5-4.1-7-8.2-7.5-9.1-2.1-3 9.5 9.7 15.1 16.6 3.1 3.8 6.4 7.7 7.2 8.5.9.8 2.3 2.8 3.1 4.3.8 1.6 2.5 3.9 3.8 5.3 1.4 1.3 2.2 2.4 1.8 2.4-.3 0 .3.9 1.4 2 1.2 1.2 1.8 2.5 1.5 3-.4.6-.1 1 .4 1 1.2 0 8.3 13.8 12.9 25 3.8 9.3 6.5 18.6 6.4 22.2 0 1.6.4 2.8.9 2.8.6 0 .8.4.4 1-.3.5.6 5.7 1.9 11.6 1.4 5.9 2.3 11.2 2 11.6-.3.5-.2 1.7.2 2.6 1.1 2.6 1.7 7.5 2.8 22.9.3 3.5.7 6.6.9 7 .2.5.7 2.5 1.1 4.5.4 2.1 1.1 4 1.6 4.3 1.4.9 1.2-3.3-.5-8.9-1.8-5.9-1.9-6.9-.4-6 .9.5 1-.7.6-4.2-.5-3.3-.4-4.2.2-2.9.9 1.9 1 1.9 1-.3.1-1.2-.8-6.2-1.9-11.1-1.1-4.8-2.2-10.7-2.5-13-.3-2.3-1-5.1-1.5-6.2-.6-1.1-.8-2.3-.5-2.8.3-.5-.6-4.5-1.9-8.8-1.4-4.3-2.7-9.3-2.9-11-.3-1.8-2.6-8.7-5.2-15.3-2.6-6.6-4.3-12.5-3.9-13.1.5-.8.3-.9-.6-.4-1 .6-1.2.4-.7-.9.4-.9.3-1.5-.2-1.2-.4.3-1.3-.7-2-2.2-1.1-2.5-1-2.6.4-.8 3.4 4.4 1.1-.7-5.6-12.5-7.8-13.5-15.6-24.8-24.9-35.9-4.7-5.7-5.8-7.5-5-8.9.7-1.4-.4-3-5.8-8.3-15.3-14.9-45.9-34.6-62.1-39.9-5.3-1.7-12.3-4.1-15.6-5.4-3.3-1.3-9.7-3-14.1-3.9-4.5-.8-13.3-2.7-19.5-4.1-6.2-1.4-15.3-2.8-20.3-3.1-14.7-.7-21.7-1.5-21.1-2.4 1.2-2-10.9-2.9-20.5-1.6-16.3 2.2-48.3 12.9-63.8 21.3-4.6 2.5-8.5 4.3-8.8 4-1.4-1.3 9.7-8.8 17.1-11.5 9.8-3.6 17.3-6.1 20.3-6.8 1.3-.2 5.2-1.5 8.7-2.9 6.6-2.5 19-6.1 23.7-6.9 1.5-.2 3.2-.7 3.7-1 1.8-1.1 27.9-2.3 37.4-1.7 5.4.3 10.8.3 12 0 1.3-.3 6.1 0 10.7.8 4.7.8 11.4 1.6 15 1.8l6.5.3-6.2-.9c-3.4-.5-7.2-1.4-8.5-1.9-2.2-1-2.2-1 .4-.5 1.5.3 5.1.8 8 1.1 2.9.3 8.6 1.2 12.6 2s7.8 1.2 8.4.8c.7-.5.8-.3.3.6-.6 1-.2 1.1 1.9.6 1.7-.4 2.5-.3 2.2.3-.3.5.7.8 2.4.7 1.6 0 2.9.3 3 .9 0 .5 2 2 4.3 3.2 4.8 2.5 2.8 3.1-2.6.8-2-.8-4.2-1.5-4.9-1.4-1 0-1 .2 0 .6.6.2 1.2 1.1 1.2 1.8s1.4 1.6 3 2c1.8.4 2.7 1.1 2.4 1.7-.4.6-.2.8.4.4.6-.3 2.3-.1 3.9.6 1.5.6 3.2 1.2 3.6 1.2.4.1 1.2.8 1.8 1.6.9 1.3 1 1.2.5-.3-.3-.9-.1-1.7.4-1.7.6 0 1 .9 1 2.1 0 1.5.5 1.9 1.6 1.5.9-.4 1.3-.2.8.5-.4.8.1.9 1.7.4 1.8-.5 2-.4.9.4-1.2.9-1.2 1.1.3 1.7.9.3 1.5 1 1.2 1.4-.3.4.8 1 2.4 1.3 1.6.3 8.1 3.1 14.5 6.2 6.3 3.1 12.1 5.8 12.8 5.9 6.5 1 20.6 8.7 27.7 15 2.7 2.4 8.1 5.9 12.2 8 5.9 2.9 10.2 6.3 21.3 17 9.5 9.1 13.6 13.8 13.1 14.6-.5.8-.4 1.1.2.7.6-.4 1.5.5 2.2 1.9.6 1.4.7 2.3.1 1.9-.6-.3-.7.1-.4.9.3.9 1 1.4 1.4 1.1.5-.3.6.3.3 1.3-.5 2.1 4.3 12.2 5.8 12.2.6 0 .7.4.4 1-.3.5-.2 1 .4 1 .6 0 .8.7.5 1.5-.4.9.1 1.8 1.1 2.1.9.4 1.4 1.3 1.1 2-.3.8-.1 1.4.5 1.4s.7.4.4 1c-.3.5-.2 1 .4 1 .6 0 1.3 1.7 1.6 3.7.4 2.1 1.5 6.5 2.7 9.7 1.1 3.3 2.1 6.4 2.3 7 .1.6.4 1.8.8 2.6.3.8 1.1 4.4 1.8 8 .6 3.6 1.6 7 2.1 7.6.5.7.8 1.6.7 2-.2.5.3 2.8 1 5.1 1.7 6.3 2.3 20.5.8 21.6-.9.7-.9 1 .1 1.4.6.2 1.2.9 1.2 1.4 0 .6-.6.7-1.2.3-1-.5-1-.4-.2.5.7.8.8 2.8.3 5.9-.4 2.6-.8 8.7-.9 13.7-.1 13-1.5 8.8-3.4-10-1.8-18.6-1.8-18.9-4.5-31.8-2-9.6-11.9-41.2-12.7-40.5-.2.2.8 3.8 2.1 8 2.8 8.8 6.1 24.5 6.9 33.3l.6 6-2.4-8.5c-4-14.5-8.4-25.1-18-44.2-6.9-13.5-9.8-18.2-11-18-1 .2-2-.7-2.6-2.3-1.4-3.7-8.2-11.5-9.3-10.8-.6.3-.7.1-.3-.5.3-.6-1-2.7-2.9-4.8-1.9-2-3.5-4-3.5-4.3 0-1.5-17.8-19.6-25.9-26.4-11.9-10-21.8-17-23.1-16.2-.5.3 3.2 3.7 8.2 7.5 5.1 3.8 11.3 8.6 13.7 10.7 6.4 5.4 21.1 20 21.1 20.8 0 .4 1.5 2.8 3.3 5.4 4.5 6.1 8.3 13.6 8.7 16.9.1.4.9 1.6 2 2.7 6.8 7.5 20.3 31.9 26.6 48.3 2.4 6.4 5.1 13.1 6 14.9 3.2 7 7.7 54 6.8 70.9-.7 10.7-.6 11.4 2 16.5 1.4 2.9 2.6 6.2 2.6 7.3 0 1.8.2 1.9 1.1.6.8-1.1.9 1.3.5 8.5l-.5 10 2.5-4.5c1.4-2.5 4.3-5.7 6.5-7.2 3.8-2.7 3.9-2.9 3.9-8.7 0-3.3 1.1-10.6 2.5-16.3 4.8-19.6 6-30.7 5.9-53.8-.1-15.7-.6-23.8-1.8-30-.9-4.7-1.7-9.2-1.8-10 0-.8-.4-2-.8-2.5-.4-.6-.8-2.5-.8-4.2 0-1.8-.4-3.8-.8-4.5-.9-1.5-1.7-8.8-1-8.8.3 0 1.3 2.5 2.2 5.5 1 3 1.9 5.3 2.2 5.1.7-.7-2.8-10.5-6.9-19.4-10.5-22.8-32.4-55.5-46.3-69.2-3-3-4.3-4.9-3.7-5.8.6-.9 2.4.5 6.7 5 16.6 17.9 25.5 30 35.9 49 3.2 6 6 10.6 6.2 10.4.5-.5-2.6-7.4-10.2-22.9-3.5-7-6.2-12.7-6-12.7.2 0 1.8 2.6 3.7 5.7 3.7 6.7 4.9 5.2 1.9-2.3-1.7-4-1.7-4.5-.3-2.5 4.5 6.4 4.8 5.8.6-.9-8.2-13.1-17.9-25.2-30.1-37.4-15-15-17.1-16.9-20.9-19.2-1.7-1.1-4.6-3.2-6.5-4.7-1.9-1.5-7-5.1-11.5-8-4.5-2.9-9-5.8-10-6.5-1-.7-5.2-2.9-9.1-4.8-7.4-3.7-9.5-5.2-4.6-3.3 5.4 2 18.3 9.1 18.3 10.1 0 .5.5.6 1 .3.6-.3 1-.1 1 .5s.4.9.9.6c.5-.3 1.2.1 1.5 1 .3.8 1 1.3 1.5 1 .5-.4 1.1-.2 1.3.3.1.5 5.5 4.2 11.8 8.3 16.1 10.5 30.7 24 45 41.9 6.6 8.2 13.1 17.1 14.4 19.7 2.8 5.7 13.6 24 13.6 23.1 0-.4-1.2-3.3-2.6-6.5-4-9.3-1.1-5 5 7.1 9.3 18.6 15.5 36.7 19.2 56 .5 2.5 1.7 6.7 4 13.4.4 1.1.7 1.2 1.7.2.9-.9.9-1.4-.2-2-.7-.5-1.1-1.3-.7-1.9.3-.6-.3-4.8-1.3-9.3-1.1-4.6-1.7-8.7-1.5-9 .2-.4 0-1-.5-1.3-.5-.3-.7-1.5-.4-2.6.3-1.2 0-2-.6-2-.7 0-1-.4-.7-.9 1.2-1.9-8.9-30.5-10.5-29.6-.5.4-.6-.1-.3-.9.8-2-3.4-9.8-4.8-9-.7.4-.8.3-.4-.4.6-1.1-1.9-7.2-3-7.2-.2 0 0 .9.6 2s.8 2 .6 2c-.3 0-1.3-1.4-2.2-3.1-.8-1.7-1.1-2.8-.5-2.4.8.4.8-.2 0-1.9-.7-1.4-1.6-2.3-2.2-1.9-.6.3-.7.1-.3-.5 1.4-2.4-14.8-26.3-31.5-46.5-4.2-5.1-8.1-9.1-8.6-9-.6.1-1.9-.8-2.9-2l-1.9-2.2 2.5 1.9c1.4 1.1.8.2-1.3-1.8s-4.1-3.4-4.6-3.2c-.5.3-1.5-.2-2.2-1.2-1.3-1.5-1.2-1.6.4-.3.9.7 1.7 1.1 1.7.8 0-1.2-13.3-10.9-25.5-18.6-15.5-9.8-35.7-20-46.3-23.4-23.6-7.6-44.4-11.9-48.4-9.9l-2.3 1.1h2.5c3.1.1 25.6 5.5 29 7.1l2.5 1-2.5-.4c-1.4-.2-3.6-.7-5-1.1-1.4-.4-3.7-.8-5.2-.9-1.4 0-2.4-.5-2.1-1 .3-.4-.9-.5-2.7-.1-2.5.6-3.1.4-2.5-.6.6-.9.3-1.1-1-.5-1 .3-8.7-.5-17.1-1.9-11.5-2-21-2.8-37.3-3.3-12.1-.4-21.7-.4-21.4 0 .2.5-.1.8-.6.8-.6 0-1.1-.5-1.1-1.1 0-.7-1.2-.9-3.2-.5-1.8.3-5.8.8-8.9 1.1-3.1.3-6.7.8-8 1-1.3.3-4.1.8-6.1 1-13.4 1.8-34.2 8.3-50.1 15.6-7 3.2-13 5.9-13.2 5.9-1.1 0-16.1 9.4-17.8 11.1-1.9 2-4.2 2.5-5.2 1-1.2-2 7.9-7.7 28.8-18.1 11.9-6 21.2-11 20.5-11.3-.7-.2 1.3-1 4.5-1.7s6-1.7 6.3-2.1c.2-.5 1.1-.6 1.8-.3.8.3 1.7.1 2-.5.4-.6 1.4-.7 2.3-.4 1.1.4 1.4.3.9-.5-.4-.7-.5-1.2-.2-1.2s5.4-1.3 11.4-3c6-1.6 15.1-3.6 20.3-4.4 8.8-1.5 8.9-1.5 2.4-1-3.8.3-9 .7-11.5.9-5.3.5 5.4-1.8 17-3.6 10.2-1.6 45.5-1.6 55 0 7.9 1.3 10.4 1.7 16 2.5 2 .2 4.7.7 6 1 1.4.3 3.6.8 5 1 9.2 1.5 38.2 9.9 46.5 13.5 1.1.5 3.6 1.5 5.5 2.2 1.9.7 7.4 3.2 12.3 5.6 4.8 2.4 8.7 4 8.8 3.6 0-.5.2-1.6.4-2.6.2-.9-.1-1.5-.5-1.2-1.3.8-10-3.7-9.3-4.8.4-.6-.1-.8-1.1-.4-1.1.5-1.5.3-1-.5s.2-.9-1-.5c-1.1.5-1.5.3-1-.5s.2-.9-1-.5c-1.1.5-1.5.3-1-.5s.2-.9-.9-.5c-1 .4-1.7.2-1.7-.4 0-.6-.7-.8-1.6-.5-1 .4-1.3.2-.8-.6s.2-.9-1-.5c-.9.4-1.5.3-1.2-.2.8-1.2-30.5-11.4-44.4-14.5-21.4-4.7-34.9-5.9-68-6-33.1-.1-36.5.2-62.8 6.5-23.4 5.5-45.9 13.5-68.6 24.2-42.5 20.2-81.4 54.1-107.7 93.7-11.4 17.2-17.2 30-22.4 49.5-5.5 20.5-8.2 33.8-8.8 42.5-.9 13.1 1.4 47.8 3.7 58 .2.8.7 3 1.1 4.7.4 1.8 1.2 3.3 1.7 3.3s.7.4.3.9c-.3.5-.1 1.2.5 1.6.6.4.8 1 .5 1.5-.3.5-.1 1.1.4 1.4.5.4 2.1 4.3 3.6 8.9 1.5 4.5 3.9 10.9 5.5 14.2 1.5 3.3 3.6 8 4.6 10.5 3.2 7.9 6.7 13 8.9 13 1.5 0 2.8 1.5 4.9 5.7 3.7 7.4 5.7 12.3 5.2 12.3-.2 0-1.3-1.5-2.5-3.3l-2.1-3.2.4 7c.3 3.8.2 6 0 4.7-.3-1.2-1.1-2.2-1.7-2.2-.7 0-.6-.4.3-1 1-.6 1.1-1 .3-1-.7 0-1.2-.3-1.1-.8.3-1.3-1.3-5.2-2.2-5.2-.8 0 1 7.7 2.7 12 .3.8.5 1.9.4 2.4-.1.5.5.4 1.3-.4 1.3-1 1.6-1 1.6.3 0 .8-.5 1.7-1.1 1.9-1.6.5 1.1 7.8 2.9 7.8.8 0 1-.5.6-1.3-.4-.6-.4-.9 0-.5.4.3.8 1 .8 1.5 0 .4.4 1.7 1 2.8.9 1.9.8 1.9-.6.2-.8-1-2.3-1.7-3.3-1.5-1.6.3-1.6.5.5 2.3 1.2 1.1 2.2 2.8 2.2 3.8s1 3.3 2.2 5c1.2 1.8 1.5 2.6.8 1.9-.8-.6-2.3-1.2-3.3-1.2-1.8 0-1.9.1-.2 2.6l1.6 2.5-2.5-1.6c-2.1-1.4-2.4-1.4-2.2-.1.1.9 1.3 2.8 2.7 4.3 2.2 2.5-3.2-1.9-7.9-6.4-1-1-4-3.6-6.7-5.8-2.7-2.2-5.9-4.9-7.1-6-1.2-1.1-3.9-3.3-6-4.9-5.1-3.9-17.3-16.2-20.3-20.4-2.3-3.3-2.3-3.3-.2-2.1 1.1.8 2.1 1.9 2.1 2.6 0 .7.4 1.3.9 1.3s2.3 1.2 3.9 2.7c9.7 9.2 11.4 10.7 10.8 9.5-.9-1.5.8-1.6 3.4-.2 1.6.9 1.8.7 1.4-1.7-.3-1.4-.9-3.4-1.4-4.3-.5-1-.6-2.1-.2-2.5.4-.5.1-.5-.6-.1s-1 1.2-.7 1.7c.3.5-.1.6-1 .2-1.3-.4-1.4-.8-.4-1.4 1.1-.6 1-.9-.1-1.3-4.3-1.3-4.5-1.4-2.4-1.5 2.3-.1 2.6-2.9.6-5.4-.7-.8-1-2.1-.7-2.9 1-2.6 1.1-9.7.1-9.1-.5.4-.7-.3-.4-1.5.4-1.2.2-2-.3-1.6-.5.3-.9 0-.9-.5 0-.6.5-1.1 1-1.1.6 0 1-.7 1-1.5s-.4-1.5-.9-1.5-.8-1.8-.7-4c.1-2.4-.3-4.5-1.1-5.2-.7-.6-1.1-2.1-.9-3.4.3-1.3 0-2.4-.5-2.4s-.9-.5-.9-1.1c0-.5.5-.7 1.1-.3.6.3.3-.6-.7-2.2-1.2-1.7-1.4-2.5-.6-2 1.1.7 1.2.4.3-1.3-.7-1.1-1.7-2.1-2.4-2.2-.9 0-.9-.2.1-.6.6-.2.9-.9.6-1.4-.4-.6-1.1-.6-1.9.1-1.1.9-1.2.7-.8-1 .4-1.3-.1-2.6-1.3-3.6-1.4-1-1.5-1.4-.4-1.2.8.2 2.1 1.2 2.7 2.3 1.2 1.9 1.3 1.9 1-.3-.2-1.3-1-2.8-1.8-3.3-1.1-.7-1.1-.9-.1-.9.7 0 1-.5.6-1.2-.5-.8-1.1-.6-2 .6-.8 1.1-1.4 1.3-1.9.7-.3-.6-.2-1.1.4-1.1.6 0 .8-.6.5-1.4-.4-1.1 0-1.3 1.8-1 2 .5 2.1.4.5-.6-1.3-.8-1.5-1.6-.8-2.9.8-1.4.3-2.5-1.9-4.9-3.4-3.8-3.6-3.8-3.6-1.2 0 1.1.5 2 1.1 2 .5 0 .3.5-.5 1-1.2.7-1.2 1-.1 1 .8 0 1.1.6.7 1.7-.5 1.5-.4 1.5.9-.1 1.5-1.9 1.5-1.9 1.5.2 0 1.3-.6 2.2-1.6 2.2-.8 0-1.3.4-1 .9.4.5 0 1.2-.6 1.4-.8.3-.6.6.5.6 1.5.1 1.6.4.6 2.2-.8 1.7-.8 2 .1 1.4.9-.5 1-.1.5 1.4-.6 2 .2 2.6 2.8 2.2.4-.1.3.7-.3 1.8-1.4 2.7-1.3 3.1.8 3.1 1.6.1 1.6.1-.1 1.1-2.5 1.5-4.6-.4-2.8-2.5.8-1 .9-1.6.1-2.1-.5-.3-1 .1-1 .9 0 .9-.4 1.6-.8 1.6-1.1 0-.8 5.7.3 6.8.4.4.4-.4 0-1.7-.5-1.6-.4-2.1.4-1.7.6.4 1.1 1.4 1.1 2.2 0 .9.5 1.2 1.3.8.9-.5.9-.4-.1.7s-1.6 1.1-3.2.1c-1.2-.7-2.1-.8-2.5-.2-.3.6-.2 1 .3 1s.9.8.9 1.7c0 2.5-2.4 6.6-3.1 5.5-.3-.6 0-1.7.9-2.5 1.3-1.3 1.3-1.6-.1-2.1-.8-.3-1.3-.2-1 .2.8 1.3-2.2 5-3.9 4.8-.8-.1-3.3-1.4-5.6-3-2.3-1.5-4.8-2.5-5.6-2.2-.8.3-1.1.1-.8-.4.3-.6.2-1-.3-1-2.8 0-16.3-32.3-20.2-48.2-1.6-6.7-3.1-14.1-3.4-16.3-.2-2.2-.9-7.8-1.5-12.5-1.5-12.2-2-30.1-1.1-40 2-22 2.2-25.5 1.7-25-.3.3-.8 3-1.2 6-.4 3-1.1 8.2-1.5 11.5-.9 6.5-.6 46.8.3 52.5.3 1.9.9 5.5 1.2 8 1.1 8 6.5 28.7 10.6 40.5 2.2 6.4 3.6 12.1 3.3 12.7-.4.6-.3.8.3.5 1.2-.8 2.6 2 1.7 3.4-.3.5 0 .9.6.9s.8.4.5 1c-.3.5-.2 1 .4 1 .6 0 .7.7.4 1.7-.5 1.2-.3 1.4.7.8.9-.5 1.1-.4.6.3-.4.7-.2 1.2.5 1.2s.9.3.6.7c-1.6 1.5 11.4 21.8 24.5 38.5 7 8.9 8.1 11 5.1 8.8-4.8-3.4 13.2 13 19.5 17.8 3.9 3 7.2 5.7 7.2 5.9 0 .3-1.2.2-2.7-.1-2.5-.5-2.3-.1 2.2 3.9 6.9 6.3 13.2 9.8 17.2 9.7 1.9-.1 3.1.3 2.8.8-1.6 2.6 4.8 8 9.4 8 1.3 0 1.8.5 1.4 1.8-.2 1 .6 2.7 2.1 4.1l2.6 2.4.8-2.2c.7-2 .9-1.9 2.1 1.4.7 1.9 1.7 3.5 2.2 3.5.5 0 .9.8.9 1.9 0 1 .7 2.4 1.5 3.1.8.7 1.5 1.9 1.5 2.6 0 .9-3-.2-8.7-3.2-4.8-2.5-9.2-4.9-9.8-5.4-.7-.6-1.5-.7-1.8-.3-.4.3-.7.1-.7-.5 0-.7-.6-1.2-1.3-1.2-1.7 0-23.5-15.8-32.2-23.3-8.8-7.7-19.9-19.2-21.7-22.6-.7-1.4-2.1-3.4-3.1-4.4-1-1-1.6-2.1-1.3-2.5.4-.3 1.3.3 2 1.4.8 1 1.8 1.6 2.2 1.2.4-.4 1.3-.3 2.1.3 2.2 1.9 1.5.3-.9-1.7-1.2-1-1.8-1.3-1.3-.5.5.9.4 1.2-.2.8-.5-.3-.9-2-.8-3.7.1-1.8-.5-3.5-1.4-4.3-1.4-1.1-1.5-1-.1.8 1.4 1.9 1.4 1.9-.2.6-1-.7-1.5-1.8-1.2-2.3.4-.5-.3-2.3-1.5-3.9-1.1-1.5-2.1-3.2-2.1-3.7s-2.7-5.1-6-10.3c-7.4-11.5-16.6-29.3-21.3-41.4-1.9-5-3.8-9.9-4.2-11-.5-1.1-.7-2.3-.7-2.8.1-.4-.3-.7-.9-.7-.6 0-.9-.7-.5-1.5.3-.8 0-1.5-.5-1.5-.6 0-.9-.9-.6-2 .3-1.1.2-2-.2-2-.5 0-1.6-3.5-2.5-7.8-1-4.2-2-8.4-2.3-9.2-.4-.8-.5-2.1-.4-2.8.1-.6-.3-2-.9-3-1.6-2.4-.5 6.8 2.1 17.7 1.1 4.7 2.1 9.4 2.4 10.5.2 1.2.4 2.3.5 2.6.2.3.2.8.1 1.2-.1 1.1 9.4 28 11.2 31.5.9 1.7 1.3 3.3 1 3.7-.4.3 0 .6.7.6s1.1.3.8.6c-.7.6 7.1 16.7 8.4 17.2.4.2.8.8.8 1.4 0 .6 1.8 3.7 4 6.9 2.2 3.3 3.8 5.9 3.5 5.9-1 0-10.7-14.7-14.4-22-13.7-26.5-21.3-52.1-25.6-86l-1.4-11.5.5 9c2.3 42.2 16.7 87.4 38.4 120.5 16.4 24.8 31.5 41.6 55.2 61.3 11.3 9.3 14.1 12.2 6.1 6.3-9-6.7-10.8-8.1-18.3-15.4-4.2-3.9-8.1-7.2-8.7-7.2-1.2 0-13.8-13.8-22.3-24.5-3.5-4.4-6.9-8.5-7.7-9.1-.7-.6-1-1.4-.7-1.7.3-.3-.4-1-1.5-1.7-1.2-.6-1.9-1.5-1.6-2.1.4-.5.2-.9-.4-.9-.6 0-3.4-3.8-6.2-8.5-2.9-4.7-5.6-8.5-6.1-8.5s-.6-.4-.3-1 .1-1-.5-1-.8-.5-.4-1.2c.5-.7.3-.8-.6-.3-1 .6-1.2.4-.6-1.1.4-1 .4-1.5-.1-1.1-.4.4-1.8-1.1-3-3.5-4.1-7.4-1.2.2 4.3 11.7 15.5 32.3 37.3 60 66.3 84.3 11.6 9.8 31.1 24.2 32.7 24.2.4 0-.5-1.4-2.2-3.1-2.9-3.1 2.6.6 18.8 12.9 3.5 2.6 10.9 7.3 16.5 10.5 10.9 6.1 11.6 6.8 11.8 10.5.1 2-.3 2.2-2.4 1.7-2-.5-2.3-.4-1.3.8 1.9 2.3-9.5-1.1-20.8-6.2-20.3-9.2-37.9-19.9-54.6-33.3-8.9-7.1-13.7-11.3-33.4-28.8l-9.5-8.5 6.3 7c8.3 9.1 10 12.5 2.8 5.5-7.1-6.8-14-15.6-13.2-16.8.3-.5-.4-1.8-1.5-2.8-3.1-2.8-8.2-10.4-6.9-10.4.5 0 1 .3 1 .8 0 .4.9 1.3 2 2 1.7 1 1.4 0-1.6-6-2-4-3.8-8.5-4.1-10.1-.3-1.6-1.3-4.6-2.4-6.7-1.1-2-2.1-4.6-2.3-5.7-.3-1.1-2.1-5.3-4.1-9.4-4.8-9.6-4.1-8.7 3.7 4.1 6.1 10 19.4 29 20.4 29 .3 0-1.3-2.7-3.5-5.9-6.3-9.2-20.3-33.4-26.5-45.8-10.5-21.1-18.5-42.7-24.7-67.3-2.3-9.3-3.5-12.6-3.7-10.5-.2 1.6-.8 3.4-1.3 3.9-.5.6-.7.1-.4-1.2.2-1.2 0-4.1-.4-6.5-.9-4.2-.9-4.1-1 2-.1 3.4.3 6.4.8 6.7.5.3.7 1.6.3 2.8-.5 2-.6 2.1-1.2.2-.4-1-1.6-7.3-2.6-13.9-2.2-14.2-2.5-44.9-.5-61.5 1.9-16.3 7.7-43.8 11.5-54.6 9.3-26.8 25.8-59.5 42.8-84.7 5.1-7.6 4.1-7.4-1.3.3-2.3 3.3-4.4 6-4.6 6-.6 0 0-.9 7.9-12.7 6.8-10.3 16.2-22 29.2-36.8 11.8-13.3 11.5-13.6-1-1-6.6 6.6-17.3 18.7-23.9 27-6.6 8.2-12.6 15.7-13.4 16.5-.8.8-3.4 4.5-5.8 8.2-2.4 3.8-4.6 6.8-4.9 6.8-.7 0-.4-.5 7.5-12.5 25.1-38.1 61.1-73.5 102.5-101 22.3-14.7 54.1-31.5 59.8-31.5 2.5 0-1.2 2.2-16.6 9.9-10.9 5.5-20.3 10.4-21 11.1-.6.6 5.4-2 13.4-5.9 40.3-19.2 70-29 112.5-37 8.8-1.6 18.7-3.2 22-3.6 3.3-.3 8.5-1.1 11.5-1.6 15.8-2.9 56-3.4 79.5-.9zm110 6c.3.6-.1.7-.9.4-1.8-.7-2.1-1.4-.7-1.4.6 0 1.3.4 1.6 1zm41.5 21.6c0 .2-.9 0-2-.6s-2-1.3-2-1.6c0-.2.9 0 2 .6s2 1.3 2 1.6zM417.5 132c-.3.5-1.2 1-1.8 1-.7 0-.6-.4.3-1 1.9-1.2 2.3-1.2 1.5 0zm-3 3c.3.6-.1.7-.9.4-1.8-.7-2.1-1.4-.7-1.4.6 0 1.3.4 1.6 1zm-3.5 2.2c0 .6-.3.8-.7.5-.3-.4-1.2.1-1.9 1.1-.7.9-1.6 1.4-2 1-.9-1 1.5-3.8 3.2-3.8.8 0 1.4.5 1.4 1.2zm401.5-.3c-.9.8-3.6 1-3 .2.2-.4 1.1-.8 2-.8.8 0 1.3.3 1 .6zM404 141.1c-.7 1.2-1.8 1.8-2.6 1.5-.8-.3-1.4-.1-1.4.3 0 .5-6.2 5.1-13.7 10.1-63.4 42.6-109.2 95.9-136.3 158.5-1.1 2.7-2.5 5.9-3 7-1.2 2.9-7.1 18.6-8 21.5-13.7 43.7-17.8 87.9-11.9 128.5 3.3 22.6 8 40.4 16 60.8 10.3 26 31.1 60.6 49.6 82.4 2.5 2.9 4.2 5.3 4 5.3-.7 0-15.3-17.2-20.4-24-18.7-25-36.7-62.4-44.7-93-4-15.1-7.6-36.5-8.3-48.8-.3-6.1-.9-11.2-1.2-11.2-1.5 0 1.4 28 4.5 44.3 7 36.3 21.2 70.6 42.8 103.1 5.1 7.8 11.9 18.6 15.1 24.1 12.1 20.7 27.4 42.2 44.4 62 13 15.2 14.3 16.5 15.4 15.8.6-.3.7-.2.4.4-.4.6.5 2.1 1.8 3.3 1.4 1.3 2.5 2.9 2.5 3.6 0 1.1 3.6 5.2 19.4 22.3 2.8 3 3.4 4 1.9 3.2-1.3-.7-2.3-.9-2.3-.6 0 1.6-14.3-11.4-29-26.3-9-9.2-16-16-15.4-15.2.6.8 4.6 6 9 11.6 6 7.4 7.6 10 6.3 10.1-1 .1-3-1.5-4.5-3.5s-6.2-7.1-10.4-11.2c-11.5-11.4-18.1-19.6-30.2-38-7.2-10.7-10.9-15.5-6.9-8.8 1.3 2.1 2 3.8 1.7 3.8-1 0 11.3 17.9 18.1 26.3 3.5 4.4 6 8.4 5.6 9-.4.6-.1.7.7.2 1-.6 1.2-.4.7.7-.3 1 .8 3.2 2.9 5.7 2 2.3 3.1 4.1 2.6 4.1s-1.3-.7-1.6-1.6c-.3-.8-1.1-1.2-1.6-.9-.7.4.2 2.3 2.2 4.8 1.9 2.3 4.6 6 6.1 8.2l2.8 4-3.1-3.5c-8.8-9.8-33.2-43.1-41.5-56.7-2.1-3.5-4.2-6-4.8-5.6-.6.4-.8 0-.4-1.1.5-1.1.3-1.5-.5-1s-.9.2-.5-1c.5-1.1.3-1.5-.5-1s-.9.2-.5-1c.4-.9.3-1.5-.2-1.1-.5.3-2.4-2-4.1-5-1.8-3.1-3.4-5.4-3.7-5.1-.3.2 2 4.6 5 9.6s5.7 8.6 6 7.8c.2-.7.8.4 1.2 2.4.4 2.1 1.1 3.8 1.7 3.8.5 0 .6.4.3 1-.3.5-.1 1 .5 1s.9.4.6.8c-.3.5.2 1.8 1.2 2.8.9 1.1 1.8 2.6 2 3.4.2.8.9 1.9 1.6 2.5 1.3 1 1.6 1.6 1.6 3.6 0 .5.4.8.8.5.5-.3.9 0 1 .7.7 4.8 1 5.9 2.8 7.3 1 .8 1.2 1.3.4.9-1.2-.5-1.2-.4.1.7.9.7 1.7 1.6 1.7 2.1.3 1.4 3.5 7.2 6.5 11.6 1.7 2.4 2.4 4 1.7 3.6-.7-.5-.5.3.6 1.7 1 1.4 2.2 2.4 2.6 2.2.4-.3.5.5.3 1.6-.2 1.2.4 2.6 1.8 3.5 1.2.8 1.8 1.5 1.3 1.5s.3 1.5 1.8 3.4c1.4 1.9 2.6 3.8 2.6 4.1 0 .4 1.3 2.5 2.8 4.8 3.8 5.7 4.8 7.7 2.3 4.7-5.5-6.5-29.7-41.9-35.5-52-2-3.6-5.4-9.3-7.5-12.6-2.1-3.4-5.8-9.8-8.2-14.2-2.4-4.5-4.5-7.9-4.7-7.7-.7.6 18 36.5 19 36.5.5 0 .6.4.3 1-.3.5-.2 1 .3 1 .6 0 1.3 1.1 1.6 2.5.4 1.4 1.1 2.5 1.7 2.5.6 0 .7.4.4 1-.3.5-.1 1 .5 1s.8.4.5 1c-.3.5-.1 1 .4 1 .6 0 2.2 2.3 3.7 5.1 2 4 2.3 5.4 1.3 6.3-.9.8-1 .8-.5-.2.4-.6.3-1.2-.3-1.2-.9 0-6.9-9.5-7-11.3-.1-.4-1-1.6-2.1-2.7-1.2-1.2-1.8-2.5-1.5-3 .4-.6.2-1-.4-1-1.3 0-4.2-5.5-3.4-6.4.4-.3.1-.6-.5-.6s-3.4-4.1-6.3-9c-2.8-5-5.3-9-5.5-9-.4 0 4.8 11.4 5.5 12 .3.3.8 1.4.9 2.5.2 1.1.9 2.3 1.5 2.7.7.4.8.8.2.8-.5 0-.4.4.3.9.7.4 1.4 1.8 1.5 2.9.1 1.2.5 2.2.9 2.2s.8.7.8 1.6c0 .8.5 1.2 1 .9.6-.3 1-.2 1 .4 0 .5-.6 1.2-1.2 1.4-.8.3-.6.6.5.6 1.5.1 2.2 1.8 1.8 4.3 0 .5.6.8 1.5.8s1.4.6 1.2 1.2c-.3.7.4 2.1 1.3 3.2 1 1 1.6 2.3 1.3 2.8-.3.4 0 .8.5.8.6 0 1.1.6 1.1 1.4 0 .8.6 2.1 1.3 2.8.6.7 2 3.1 3 5.3l1.7 4-2-2.4c-3.1-3.6-17.1-27.4-26.3-44.6-4.4-8.3-8.1-15.1-8.2-15.3-.1-.2-.5.4-.9 1.3-.4 1.1-.2 1.4.6.9.8-.5.9-.2.5 1-.5 1.1-.3 1.5.5 1s.9-.2.5 1c-.4 1.1-.3 1.5.4 1 .7-.4.9 0 .6 1.2-.3 1.1.3 3.5 1.3 5.4 1.1 1.9 1.9 3 1.9 2.5 0-.6-.6-2.1-1.4-3.5-.8-1.4-1.4-3-1.4-3.5 0-1.1 15.3 30.2 20.9 42.7 1.9 4.2 3.7 7.2 4.1 6.7.3-.6 2.5 3.4 4.9 8.8 4.3 9.8 5.9 12.8 4.6 8.5-1.5-4.6.2-2 2.4 3.9 1.3 3.3 2.6 5.5 3 4.9.4-.6 1.2.8 1.9 3 .6 2.2 1.6 3.8 2.1 3.5.5-.3 1.2 1.1 1.6 3.1.3 1.9 1.2 3.8 1.9 4 .7.3 1.6 2 2.1 3.7.8 3.1.8 3 1.2-1.7l.3-4.8 3.1 4.8c4 6.3 5 14.9 2.2 19.1-1 1.6-1.7 3.1-1.6 3.6.1.4-1.1 1-2.7 1.3-2.4.5-2.9 1-2.5 3 .4 2 0 2.4-2 2.4-1.3 0-2.6.6-2.9 1.2-.3 1-.7 1-1.9.1-.8-.7-1.8-1.1-2.1-.8-.4.3-.5.2-.2-.2.3-.3-.4-1.3-1.6-2.1-1.3-.9-1.9-2.1-1.6-3.4.3-1.1.3-1.7 0-1.4-.3.3-1.9-1.6-3.5-4.1-2.8-4.4-3-5.4-3.3-16.3-.2-6.3-.8-13.3-1.4-15.5-2.7-10.6-9-32.5-10.5-36.3-3.4-9.2-11.1-25.3-11.5-24.1-.2.7-1.9-1.6-3.7-5.2-3-5.9-3.3-6.1-2.9-2.8.3 2 .9 4.9 1.5 6.3 2.4 6.4.5 3.2-5.1-8.4-7.3-15.2-11.7-25.3-22.5-52-4.6-11.3-8.4-19.9-8.4-19.2 0 .6 1.8 8.7 4 17.8 2.2 9.1 3.7 17 3.4 17.5-.3.5 0 .9.6.9s1 .6.8 1.2c-.5 2.3 8 21.3 22.9 51.2 5.2 10.4 10.5 22.8 11.9 27.5 2.9 10 4.6 21.5 3.5 24.3-.7 1.9-.8 1.8-2.6-.8-3-4.4-8-13.8-13.5-25.4-2.8-5.7-5.5-10.7-6.1-11.1-.6-.3-1-.9-1-1.3.3-2.3 0-3.6-.9-3.1-.6.4-.7-.1-.3-1.1.5-1.3.3-1.5-.7-.9-.9.5-1.1.4-.6-.3.4-.6-.2-2.9-1.3-5-1.1-2.2-1.7-4.2-1.4-4.6.4-.3.1-.6-.6-.6s-.9-.5-.6-1c.3-.6.2-1-.4-1-.6 0-.8-.7-.5-1.5.4-.8.1-1.5-.6-1.5-.6 0-.9-.4-.6-.9.4-.5.1-1.1-.4-1.3-.6-.2-1.2-1.3-1.3-2.6 0-1.2-.5-2.2-1-2.2-.4 0-.6-.4-.2-.9.3-.5.1-1.2-.4-1.5-.5-.4-1.3-3.2-1.6-6.4-1-8.5-5.7-26.3-10.3-39.2-.3-.8-.4-2.1-.3-2.8.1-.6-.3-1.2-.8-1.2-.6 0-.7-.7-.4-1.7.4-1 .2-1.4-.4-1-1.7 1.1-4.8-13.4-8.7-40.8-5-35-6-47.6-6-78.5-.1-38.3.8-49.2 7-83.3 1.4-7.7 2.4-14 2.2-14.2-.2-.2-3.5 4.4-7.4 10.3-24.9 37.3-41.9 77.5-50.3 118.8-4.3 21.3-5.5 36.5-4.9 65.8.5 26.3.3 26.4-3.4 2.1-2-13.4-2.3-18.6-2.3-49 0-27.4.4-36.4 1.8-46.5 5.7-39.5 13.9-68.6 29.8-105.3 13.8-31.9 30.8-62.2 39.4-70.2 11.9-11.1 28.3-25.2 34.7-29.8 4-2.9 4.2-3 2.5-.7-1 1.4-2 3.3-2.4 4.2-.3 1-.9 1.8-1.4 1.8-.5 0-.9.6-.9 1.2 0 .7-1 2.9-2.2 4.8-2.1 3.3-3.1 6-2.2 6 .4 0 8.4-10.7 8.4-11.3 0-.9 14.4-24.5 19.3-31.7 27.7-40.4 64.2-75.8 107.7-104.3 9.9-6.4 18.8-11.7 19.8-11.7.1 0-.2.9-.8 2.1zM674.5 229c.4.6 1 .8 1.5.5.5-.3 1.1-.1 1.5.4.7 1.3-3.5.5-4.9-.9-.7-.7-.6-1 .1-1s1.5.5 1.8 1zm7.5 2.5c0-.4.6-.2 1.3.4.8.6 1.7.8 2 .4.4-.3.7-.1.7.5 0 1.5 0 1.5-3.9.1-1.7-.6-3.1-1.6-3.1-2.1 0-.6.6-.5 1.5.2.8.7 1.5.9 1.5.5zm8 3.5c.8.5 1.1 1 .5 1-.5 0-1.7-.5-2.5-1s-1-1-.5-1c.6 0 1.7.5 2.5 1zm5 2c.8.5 1.1 1 .5 1-.5 0-1.7-.5-2.5-1s-1-1-.5-1c.6 0 1.7.5 2.5 1zm0 7c7.5 3.8 19.2 11.3 21.1 13.6 1.1 1.4.6 1.3-2.8-.5-7.1-3.5-6.2-2.4 2 2.9 4.3 2.8 7.5 5.4 7.2 6-.3.5 0 .7.7.5.7-.3 2.9.7 4.7 2.3 2.6 2.2 3.1 3.1 2.1 3.7-.9.5-1.1.4-.6-.3.4-.7.1-1.2-.8-1.2s-1.6-.5-1.6-1.1c0-.5-.4-.8-.9-.5-.5.3-2.3-.7-4-2.3-1.7-1.6-3.1-2.7-3.1-2.4 0 .5-5.8-3.5-8.4-5.9-1.1-1-3.2-2.4-4.8-3-1.5-.7-2.8-1.6-2.8-2 0-.4-.8-.9-1.7-1.1-1-.2-.2-.2 1.7 0l3.5.4-2.5-2.1c-1.4-1.1-5.6-3.8-9.5-6-8.3-4.7-8-5.3.5-1zm-128.7 10c20.6 2.1 31.4 3.3 34.7 3.7 10.8 1.3 30.2 8.2 23.2 8.3-1.3 0-2-.4-1.7-1 .4-.6-.6-1-2.2-1-1.5 0-8.4-1.2-15.3-2.6-23.1-4.8-27.4-5.3-43.3-5.3-9.5-.1-15.6-.5-15.2-1 .3-.5-.5-1.2-1.7-1.4-4.6-.9 12.6-.7 21.5.3zm98.7 8c0 .5-.2 1-.4 1-.3 0-.8-.5-1.1-1-.3-.6-.1-1 .4-1 .6 0 1.1.4 1.1 1zm-24.8 6.6c12.3 4.5 22.7 9.3 25.2 11.9 3.2 3.2 2.8 3.1-4.2-.4-3.1-1.5-10-4.3-15.2-6.2-5.2-1.8-10.6-3.9-12-4.6-1.4-.7-3-1.3-3.7-1.3-.6 0-1.5-.5-1.8-1-1.1-1.8 4.2-1.1 11.7 1.6zM468 267.4c0 .2-.9.6-2 .9-1.1.3-1.8.1-1.4-.4.5-.9 3.4-1.3 3.4-.5zm-197.4 10.3c-.8 1.6-2.2 3.7-3.1 4.8-1.6 1.9-1.7 1.9-.3-.5.8-1.4 2-3.5 2.7-4.8.6-1.2 1.4-2.2 1.7-2.2.2 0-.2 1.2-1 2.7zm385.9 13.9c2.8 1.3 3.9 2.1 2.7 1.8-1.3-.3-4.7-1.7-7.5-3-2.9-1.3-4.1-2.1-2.7-1.8 1.4.4 4.8 1.7 7.5 3zm17.5 10c0 .2-.9 0-2-.6s-2-1.3-2-1.6c0-.2.9 0 2 .6s2 1.3 2 1.6zm19.4 14.3c-.2.3-1.2-.3-2.2-1.3-1.6-1.7-1.6-1.8.5-.5 1.2.7 2 1.5 1.7 1.8zm262.1 4.1c.9 1.6 1.3 3 1.1 3-.3 0-1.2-1.4-2.1-3-.9-1.7-1.3-3-1.1-3 .3 0 1.2 1.3 2.1 3zm-251.4 4.7c.8 1-.5.3-2.8-1.6-2.4-1.8-4.3-3.5-4.3-3.8 0-.7 5.5 3.4 7.1 5.4zm197.3-3.1c1 3.7.2 3.9-1.1.4-.6-1.7-.8-3-.3-3 .4 0 1.1 1.2 1.4 2.6zm-338.9 1c34.4 4.4 71 18.6 96.5 37.3 11.1 8.1 34 31.6 34 34.8 0 .7.4 1.3.8 1.3.9 0 4.2 6.4 4.2 8 0 .5-3.9-3-8.8-7.8-4.8-4.8-11.6-11.2-15.1-14.2s-7.7-6.7-9.5-8.3c-1.7-1.5-3.4-2.7-3.8-2.7-.3 0-1.3-.6-2-1.3-1.5-1.4-12.1-8.6-15.2-10.3-3.5-1.9-15.7-8.4-21.6-11.5-3-1.6-6.2-2.9-7.2-2.9s-1.8-.5-1.8-1c0-.6-.6-1-1.4-1-.8 0-2.7-.5-4.3-1.2-1.5-.6-3.1-1.2-3.5-1.3-.5-.2-1.1-.4-1.5-.5-.5-.1-1.2-.2-1.7-.1-.4.1-1.3-.3-2-.8-1-.9-5.3-2.1-12.5-3.7-1.3-.3-3.3-1-4.4-1.5-1.4-.8-1.7-.8-1.3 0 .8 1.2-2 .4-4-1-.6-.5-1.3-.6-1.6-.4-.3.3-2.7.1-5.4-.6-2.7-.6-6.1-1.1-7.6-1.1-1.6 0-2.8-.2-2.8-.6 0-.4-2.1-.7-4.7-.7-2.7 0-8.4-.4-12.8-.8-4.4-.3-17-.9-28-1.3-13.1-.4-20.3-1-20.7-1.8-.6-.8-.8-.7-.8.1 0 .7-1 1.3-2.2 1.3-3.1 0-1-1.9 2.7-2.4 1.7-.2 5.5-.9 8.5-1.5s7.3-1.2 9.5-1.5c5.5-.5 45.9.2 52 1zm399 8.7c4.1 8.6 4.6 11.5.8 4.2-3.4-6.5-5.5-11.5-4.8-11.5.3 0 2.1 3.3 4 7.3zm-144.1 19.3c.3.8.2 1.2-.4.9-.6-.3-1-1-1-1.6 0-1.4.7-1.1 1.4.7zM743 369.5c0 .5-.5.3-1-.5s-1-2-1-2.5c0-.6.5-.3 1 .5s1 1.9 1 2.5zm-14 83.6c3.5 13.5 4.5 25.4 2.7 33.9l-1.5 7.5V485c-.1-9.6-.9-16.5-3.7-31.1-1.8-9.8-1.9-10.7-.4-9.2.6.6 1.9 4.4 2.9 8.4zm-41 1.8c0 .6-.9.9-2 .8-1.1-.1-2-.5-2-.9s.9-.8 2-.8 2 .4 2 .9zm5.4 1.1c1.4.5 2.6 1.6 2.6 2.5 0 1.8-2.1 2-4 .2-1.2-1-1.2-.9-.1.5 1.1 1.5 1.1 1.8-.3 1.8-.9 0-1.6-.5-1.6-1 0-.6-.5-.9-1.1-.8-.6.2-1.4-.3-1.6-1-.3-.6.2-1.2 1.1-1.2.9 0 1.6-.5 1.6-1 0-1.2.2-1.2 3.4 0zm-4.8 14.7c-.5.5-5.6-7.1-5.6-8.3 0-.4 1.4 1.2 3.1 3.5 1.7 2.4 2.8 4.5 2.5 4.8zm-232.5-2.9c1.3.6 1.4.9.4 1.9-.7.7-1.7.8-2.6.2-1.2-.7-1.2-.9.1-.9s1.3-.1 0-1c-1.7-1.1-.3-1.2 2.1-.2zm249.4 4.3c.4.6.5 1.2.2 1.5-.7.7-3.7-.7-3.7-1.7 0-1.3 2.7-1.1 3.5.2zm1.3 3.9c.6-1.6 4.8-1.1 6.4.7.9 1 2 4.1 2.6 6.8.6 2.8 2 7.3 3.2 9.9 1.1 2.7 1.8 5.1 1.6 5.3-1.9 2-22.6-9.3-22.6-12.3 0-1.2.5-1.1 2.8.3l2.7 1.7-2.9-3.1c-2.6-2.9-2.7-3.1-.7-2.6 2.1.5 2.1.3-.8-4.6-1.7-2.9-3.1-5.4-3.1-5.6 0-.2 2.4.7 5.3 2 2.8 1.4 5.4 2 5.5 1.5zm32.9.2c-.3.8-.6.5-.6-.6-.1-1.1.2-1.7.5-1.3.3.3.4 1.2.1 1.9zm-2.7 1.9c0 .6-.4.7-1 .4-.5-.3-1-1.1-1-1.6 0-.6.5-.7 1-.4.6.3 1 1.1 1 1.6zm-375.8 5.3c.1 2 .5 3.6 1.1 3.6.5 0 .7.7.3 1.5-.3.8-.1 1.5.4 1.5s1.2 1 1.6 2.2c.6 2 .9 1.7 2-2.2.8-2.5 1.1-6.1.9-8-.3-1.9 1.7 2.6 4.4 10s6.4 17.3 8 21.8c1.7 4.6 3.7 9.3 4.5 10.4 1.3 1.8 1.5 1.8 2.3.3.8-1.4 2.1-.2 7.1 6.9 3.4 4.8 6.2 9 6.2 9.5 0 1.1 8.7 9.1 9.9 9.1.6 0 4.2 2.9 8.1 6.4 8.6 7.7 23.2 15.9 20.4 11.5-.3-.6 1.1 0 3.2 1.3 7.7 4.8 33.2 14 46.9 16.9 3.3.7 6.5 1.6 7 2 1 .7 12.4 2.9 15.3 2.9.7 0 1.1-.4.8-.9-.3-.4-2.9-1.1-5.7-1.5-2.8-.4-4.9-.9-4.7-1.2.8-.7 15.8.8 15.3 1.6-.3.4.4 1 1.5 1.3 1.1.3 2.3 1.3 2.7 2.4.8 2.2 2.2 3.3 4.5 3.3 3 0 7.3 2.1 6 2.9-.7.4 1.5 1.2 5 2 3.4.7 5.6 1.6 5 2-.7.4.7 1.2 3.2 1.9 2.4.6 5.1 1.8 5.9 2.6 1.8 1.9 7.9 5.6 9.1 5.6.6 0 .1-.7-1-1.6-3.4-2.9 3.7 1.6 8.1 5 2.2 1.7 5.9 4.4 8.2 5.9 3.3 2.3 6.1 6.3 5 7.3-.2.2-19-3.7-34.7-7.1-7.5-1.7-8.5-1.9-15-3-1.9-.3-4.6-.8-6-1.2-1.4-.3-3.2-.7-4-.8-1.8-.3-5.6-1.1-9-1.9-1.4-.3-4.1-.8-6-1-1.9-.3-5.1-.8-7-1.2-5.4-1.1-3.2.3 5.1 3.1 10 3.5 4 2.5-16.6-2.5-20-5-34.1-10.1-52-19-25-12.5-41.2-26.1-58-48.5-9.7-13-13.7-19.3-16.1-25.5-1-2.5-2.1-4.7-2.5-5-.4-.3-1.1-1.9-1.5-3.5-.6-2.6-.6-2.8.7-1.5.8.8 3.6 5.3 6.3 10 13.6 23.6 30.9 42.2 53.5 57.5 5.3 3.6 10.3 6.5 11.1 6.5.8 0 5.3 1.9 10 4.3 9.9 5 26.6 11.4 39.6 15.2 13 3.7 31.4 7.5 31.4 6.4 0-.5-.6-.9-1.4-.9-2.6 0-35.1-11.1-47-16.1-29.5-12.4-47.8-24-64.7-40.8-14.7-14.8-25.4-30.6-33.4-49.6-2.9-6.8-3.1-8.5-2.6-20.9.1-4.8 1.1-4.3 1.3.8zm333 5.2c12.4 9.9 12.9 10.8 1.8 3.3-5.2-3.5-12.1-9.9-10.7-9.9.4 0 4.4 3 8.9 6.6zm-1.7 4.4c1 1.1 1.6 2 1.3 2-.3 0-1.3-.9-2.3-2-1-1.1-1.6-2-1.3-2 .3 0 1.3.9 2.3 2zm-442.9 12.7c-.2.3-.7-.4-1-1.5-.4-1.1-1.3-2.3-2.1-2.5-.8-.4-1.1-1.4-.8-2.6.3-1.2.1-2.1-.4-2.1-.6 0-.8-1.2-.5-2.7.5-2.4.8-1.8 2.9 4.1 1.2 3.8 2.1 7.1 1.9 7.3zm-146.9 3.5c-.2 2.9-.3.8-.3-4.7s.1-7.9.3-5.3c.2 2.6.2 7.1 0 10zm627-12c-.3.8-.6.5-.6-.6-.1-1.1.2-1.7.5-1.3.3.3.4 1.2.1 1.9zm-230.9 5.4c2.9.2 3.3.5 2.6 1.6-.5.7-.2.9.9.5.9-.3 1.8 0 2.1.9.3.9 1 1.3 1.5.9.6-.3 1.5.4 2.1 1.5.6 1.1 1.5 2 2.1 2 .6 0 .7-.5.3-1.2-.4-.7-.3-.8.5-.4.6.4.8 1.2.5 1.8-.5.8-.1.9 1.1.4 1.6-.6 1.7-.5.3 1.6-2 3-2.9 2.8-5.3-.8-1.1-1.7-2.6-2.9-3.3-2.6-.7.2-1.5-.3-1.8-1.2-.3-.9-1-1.4-1.4-1.1-.5.3-1.2-.4-1.5-1.6-.4-1.1-.9-1.8-1.2-1.5-.8.8-3.3-1.4-3.3-2.8.1-.6.6-.5 1.3.4.7.8 1.8 1.5 2.5 1.6zm17.7 12.5c-.6.8.9 1.3 2.8 1 .5-.1.6.3.2.8-.6 1.1-3.6.3-4.7-1.3-.9-1.3.1-2.8 1.3-2 .5.3.7 1 .4 1.5zm6.8 5.9c.3-.6.5-.6.3.1-.4 2.2-3.2 1.8-3.3-.5-.2-2-.1-2 1.2-.3.8 1.1 1.5 1.4 1.8.7zm-273 .5c-.3.9-.8 1.4-1 1.1-.3-.3-.2-.9.2-1.5.9-1.6 1.5-1.3.8.4zm1 3c-.3.9-.8 1.4-1 1.1-.3-.3-.2-.9.2-1.5.9-1.6 1.5-1.3.8.4zm276.1.1c-.7.3-1 1.4-.7 2.4.3 1.1.9 1.7 1.4 1.4.5-.3.6.2.3 1.1-.5 1.1-.2 1.4 1 .9.9-.3 1.3-1.1 1-1.8-.3-.6.2-.2 1 .8.9 1.1 1.6 2.4 1.6 2.9 0 .4.5.5 1.2.1.6-.4.8-.3.5.3-.4.5.3 2 1.4 3.2 1.2 1.2 1.8 2.5 1.5 2.9-.4.3-2-.9-3.6-2.7-1.7-1.8-3-3-3-2.6 0 .3-1.1-.5-2.5-1.8-3.3-3-4.3-7.7-1.8-7.6 1 0 1.3.3.7.5zm-274 7.4c.5 1.7.4 2-.2 1-.5-.8-1.3-2.6-1.6-4-.5-1.7-.4-2 .2-1 .5.8 1.3 2.6 1.6 4zm5.9 11c.4-.8.4-.5.1.7-.3 1.3-.1 3.1.5 4 .8 1.4 1 1.5 1.1.3 0-1.3.1-1.3 1 0 .5.8.7 2.3.4 3.4-.4 1.1-.2 1.6.4 1.2.6-.4.8.3.5 1.6-.4 1.9-.3 2 .7.8.9-1.2 1-1.1.5.9-.5 1.6-.4 2.1.4 1.7.7-.5.9-.1.5.8-.3.9-.7 1.6-.9 1.6-.2 0-2.3-4.6-4.8-10.3-4.7-10.9-7.3-18.6-3.4-10.2 1.6 3.5 2.6 4.5 3 3.5zm97.7-.8c2.4 3.5 7.1 9.7 10.5 13.8 8.5 10.3 9 11.7 1.4 3.9-8.8-9.1-12.6-14-14.9-19.3-1.1-2.6-1.8-4.6-1.6-4.6.2 0 2.3 2.8 4.6 6.2zm-32.7-.2c-.3 1.1-.9 1.7-1.5 1.4-.5-.3-.5-1.1.1-1.8s.7-1.7.3-2.1c-.4-.5-.2-.5.5-.2.6.4.9 1.6.6 2.7zm215.7 0c0 .5-.8 1-1.7 1-1.5 0-1.6-.2-.3-1 1.9-1.2 2-1.2 2 0zm-215 7.3c0 .8-.7 1.4-1.5 1.4-1.1 0-1.2-.4-.4-1.4.6-.7 1.3-1.3 1.5-1.3.2 0 .4.6.4 1.3zm-27.9 3.4c1.3 1.6 1.2 1.7-.3.4-1-.7-1.8-1.5-1.8-1.7 0-.8.8-.3 2.1 1.3zm624.5 15c-.4 5.4-.9 11.6-1.1 13.8-.3 2.2-.7 6.2-.9 9-.8 7.5-1.6 13.4-2.6 19-.5 2.7-1.2 6.1-1.4 7.5-9.3 51.1-28.2 95.3-59.7 139.6-27.6 38.9-56.5 66.7-97.4 93.9-31.3 20.7-65.8 38.6-90.5 46.8l-6.5 2.2 17.5-.3c9.6-.1 19.4-.7 21.7-1.2 7.9-1.9 6.8-.9-1.7 1.6-40.8 11.7-98.3 17.9-144.7 15.5-24.5-1.3-41-3.1-66.3-7.2-32.9-5.3-32.1-6.2 1.5-2 12.7 1.7 28.2 3.5 34.5 4.1 15 1.3 59.7 2.5 58.8 1.5-.5-.5-12.1-1-25.9-1.2-25.6-.3-33.4-1.3-22.3-2.8 3.3-.5 6.1-.9 6.4-1 .3-.1 2.3-.5 4.5-.9 2.2-.5 7.9-1.9 12.7-3.2 50.8-14 101.6-47.9 160.3-106.8 26-26.1 44.5-48.5 63.3-76.6 4.6-6.8 9.8-13.4 11.6-14.6 1.8-1.2 10.8-6.1 20.2-10.8 10.1-5.1 20.5-11.2 25.9-15.3 17.3-13.1 37.8-35.8 50-55.4 7.8-12.5 23.3-43 28.1-55.2 2.1-5.3 4-9.7 4.3-9.7.2 0 .1 4.4-.3 9.7zM268 562.5c0 .5-.5.3-1-.5s-1-2-1-2.5c0-.6.5-.3 1 .5s1 1.9 1 2.5zm59.5-1.5c.3.5-.1 1-.9 1-.9 0-1.6-.5-1.6-1 0-.6.4-1 .9-1 .6 0 1.3.4 1.6 1zm-55 11.5c3.4 7.8 2.3 7.9-1.7.1-1.8-3.6-3.6-9.7-2.4-8.5.3.3 2.1 4.1 4.1 8.4zm112 5l6.9 8-6.8-6.5c-3.7-3.6-7.4-7.9-8.3-9.5-1.8-3.6-1.5-3.3 8.2 8zm138.2 12.1c-.3.3-1.2.4-1.9.1-.8-.3-.5-.6.6-.6 1.1-.1 1.7.2 1.3.5zm255.2 16.7c-2.3 6.5-4.3 11.7-4.4 11.5-.2-.2 1.5-6.7 3.8-14.5 2.7-9.2 4.3-13.2 4.5-11.4.2 1.5-1.6 8-3.9 14.4zm-620.2 1.9c-.3.7-.5.2-.5-1.2s.2-1.9.5-1.3c.2.7.2 1.9 0 2.5zm154 32.7c2.1 3.5 3.8 6.8 3.8 7.5 0 2 2.6 5.7 3.5 5.1.6-.3.8 0 .5.7-.3.7 2.2 5.1 5.5 9.7 10.6 14.6 11.4 15.8 9 13.1-1.2-1.4-4.3-4.8-6.9-7.7-7.5-8.2-23.5-31.4-31.5-45.8-2.7-5-2.7-5 4.8 3 4.1 4.4 9.2 10.9 11.3 14.4zm202-21.3c-.3.3-1.2.4-1.9.1-.8-.3-.5-.6.6-.6 1.1-.1 1.7.2 1.3.5zM51.9 647.9c1.8 4 5.5 11.8 8.2 17.4 2.7 5.5 4.9 10.6 4.9 11.4 0 .7.5 1.3 1.1 1.3.5 0 .8.4.5.9-1.1 1.7 12.1 35.7 20.2 52.2 7.3 14.9 21 38.9 28.4 49.7 1.6 2.3 2.7 4.6 2.4 5.1-1.1 1.8 20.7 32.8 30.9 44 12.1 13.2 34.5 35.7 44 44.2 7.4 6.6 9.8 8.2 12.6 8.4 1.9.1 4.8.5 6.4 1l3 .8-2.4-2.7c-3.9-4.2-.7-3 5.1 1.9 5.5 4.7 39.3 25.2 40.9 24.8.3-.1.6.5.6 1.3s-.7 1.2-1.6 1c-.9-.3-3.1-.8-5-1.1-7.7-1.3-46.1-20-50.1-24.4-4.2-4.6-12.7-11.1-13.5-10.3-.5.4-.6.2-.3-.3.2-.6-1.8-3-4.6-5.5-2.7-2.5-4.7-4-4.3-3.4.7 1.2-18.3-17.6-28.3-28.1-3.6-3.8-6.4-7.2-6.3-7.6.2-.5-.5-1.3-1.6-1.8-3-1.7-18.3-21-17.5-22.3.4-.7.3-.8-.4-.4-1.4.8-14.3-17-27-37.1-17.5-27.9-37-70-45-97.3-3.8-12.9-12.2-46.7-12.2-48.9 0-.9 1.8 2.9 3.9 8.4 2.1 5.5 5.2 13.3 7 17.4zm393.5-24.3c1.7.7 2.4 1.4 1.6 1.4-3.9.3 20.4 7.5 36 10.6 20.3 4 22.1 4.6 12.5 3.9-9.8-.7-34.6-5.5-33.9-6.6.3-.5-.2-.6-1-.3-1.8.7-16.6-3.5-16.6-4.7 0-.5-.8-.6-1.7-.2-1 .3-1.5.3-1.1-.2.4-.4-.3-1.6-1.5-2.7l-2.2-1.9 2.5.6 2.5.6-2.5-1.6-2.5-1.6 2.4.7c1.4.4 3.8 1.3 5.5 2zm-53.1 4.4c.9 1.1 1.3 2 .7 2-.5 0-1.4-.9-2-2-.6-1.1-.9-2-.8-2 .2 0 1.1.9 2.1 2zm89.2 18.3c12.6 2.3 37.2 5.7 42 5.8 3.4.1 3.6.2 1.5.8-3.1.9-40.7-.5-50.9-1.9-6.6-.9-7.8-1.5-12.7-5.6-3-2.6-5.4-4.7-5.4-4.9 0-.1 3.7.8 8.3 2 4.5 1.2 12.3 3 17.2 3.8zm27.3-5.6c-1 .2-2.8.2-4 0-1.3-.2-.5-.4 1.7-.4 2.2-.1 3.2.1 2.3.4zm-125.5 6.1c2.6 1.8 4.7 3.5 4.7 3.8 0 .6.1.7-7.7-4-3.5-2.1-6.3-4.1-6.3-4.6 0-1.1 3.1.5 9.3 4.8zm-337.6 4.4c-.3.8-.6.5-.6-.6-.1-1.1.2-1.7.5-1.3.3.3.4 1.2.1 1.9zm99.3 2.9c0 1.4-.5 1.1-3.1-1.7l-2.4-2.7 2.8 1.8c1.5.9 2.7 2.1 2.7 2.6zM352 698c0 .5-.2 1-.4 1-.3 0-.8-.5-1.1-1-.3-.6-.1-1 .4-1 .6 0 1.1.4 1.1 1zm-221.9 23.7c1.3 1.6 1.2 1.7-.3.4-1.7-1.3-2.2-2.1-1.4-2.1.2 0 1 .8 1.7 1.7zm200.7 9.9c-.4.3-1.2-.5-1.8-1.8-1.2-2.2-1.2-2.2.6-.6 1 1 1.5 2 1.2 2.4zm-189.7 2.1c1.3 1.6 1.2 1.7-.3.4-1-.7-1.8-1.5-1.8-1.7 0-.8.8-.3 2.1 1.3zM80 743c2.2 4.4 3.8 8 3.5 8-.3 0-2.3-3.6-4.5-8s-3.8-8-3.5-8c.3 0 2.3 3.6 4.5 8zm257.4 0c1.3 2.5 2.7 5.6 3.1 7 .7 2.2.6 2.3-.9.8-.9-.9-1.6-2.2-1.6-2.9 0-.7-.3-1-.6-.7-.3.4-.1 2.2.4 4.1.6 2.2.6 4 0 5.2-.7 1.2-.7 1.6 0 1.1.7-.4.6.5-.1 2.5l-1.2 3.1-1.1-3.9c-.7-2.2-1.8-5.3-2.6-6.9-.9-1.8-1.2-3.8-.7-5.4.6-2.3.7-2.3.8-.3.1 3.2 1.9 3.8 3.2 1 .9-2 .7-3.2-1-6.5-2.2-4.3-2.8-6.8-1-4.2.5.8 2 3.5 3.3 6zM90 761.2c10.5 18.1 27.1 42 41.3 59.3 13.4 16.4 45.9 49.7 48.2 49.5.3 0 1.9 1.6 3.6 3.5 1.7 1.9 3.4 3.3 3.8 3 .4-.2 1.8.9 3 2.6 1.2 1.6 2.6 2.7 3 2.4.5-.2 1.6.7 2.5 2 .9 1.4 2.1 2.3 2.6 2 .5-.3 1.4.4 2 1.5.6 1.1 1.5 1.8 2 1.5.5-.3 1.8.9 3.1 2.6l2.2 3.1-2.9-1.5c-3.6-1.9-20.7-16.1-33.8-28.1C152 847.5 129 821 112 797c-10.4-14.7-29.1-45-27.7-45 .2 0 2.8 4.1 5.7 9.2zm251.7-6c-.3.8-.6.5-.6-.6-.1-1.1.2-1.7.5-1.3.3.3.4 1.2.1 1.9zm249.8 13.6c-.6.5-3.1 2.1-5.6 3.5-4.4 2.5-4.7 2.5-5.2.8-.4-1.6.5-2.2 4.7-3.4 6.1-1.8 7.3-2 6.1-.9zm23.2 2.8c.3.8 1.2 1.3 1.9 1 2.2-.8 1.6.2-.7 1.5-1.7.9-2 .8-1.4-.2.6-.8.4-1.1-.6-.7-4.1 1.5-5.8 1.8-6.3.9-.4-.5-.1-1.3.5-1.7.8-.5.9-.3.4.6-.5.8-.3 1.1.6.8.8-.3 1.3-1.1 1.1-1.7-.1-.7.2-1 .8-.6.5.3 1 .1 1-.4 0-1.7 2-1.3 2.7.5zm-9.6 4.8c.5-.3.9-.3.9 0s-2.1 1.7-4.6 3.2c-3.1 1.8-4.9 2.3-5.6 1.6-.7-.7.4-1.8 3.4-3.6 2.3-1.4 4.5-2.1 4.6-1.6.2.6.8.8 1.3.4zm4.4 1.6c-1 1.1-2.2 2-2.7 2-.6 0-2.1.9-3.5 2-2.8 2.2-5.5 2.8-3.5.8 1.1-1.1 10.3-6.7 11.1-6.8.2 0-.4.9-1.4 2zm18.5-1.6c0 .5-10.3 6.7-19.2 11.6-8.6 4.6-10.5 4.3-3-.6 4.8-3.2 6.6-4.2 16.2-8.7 6.2-2.9 6-2.8 6-2.3zm-79.8 7.3c-.6.2-1 .8-.8 1.2.3.4-.1.8-.9.8s-1.5-.4-1.5-.8c0-.8 1.9-1.7 3.5-1.7.6 0 .4.2-.3.5zm-427.1 5.5c1.7 2.4 1.8 2.9.6 1.9-1.8-1.4-4.2-5.1-3.3-5.1.3 0 1.5 1.5 2.7 3.2zm416.9-2.3c-.8.5-2.6 1.1-4 1.5-2.1.5-2 .3.5-.9 3.2-1.5 6-2 3.5-.6zm45.5 1.1c-.3.5-1.2 1-1.8 1-.7 0-.6-.4.3-1 1.9-1.2 2.3-1.2 1.5 0zm-458.4 6.7c1.3 1.6 1.2 1.7-.3.4-1-.7-1.8-1.5-1.8-1.7 0-.8.8-.3 2.1 1.3zm469.4.3c-.3.5-1.2 1-1.8 1-.7 0-.6-.4.3-1 1.9-1.2 2.3-1.2 1.5 0zm-131.9 19.1c.3.6 1.6.8 2.8.6 1.1-.3 3-.2 4.1.2 2.4.9-6 2.1-15 2.1h-6l3-2c3.2-2.1 10-2.7 11.1-.9zm15.3 15.8c1.7 1.1.2 1.6-8.5 3-3.7.5-5.3.4-6.3-.6-1-1.1-.5-1.3 3.1-.8 3 .4 3.7.3 2.3-.4-1.9-.8-1.9-.9.5-1.3 4.3-.9 7.4-.8 8.9.1zm-16.1 3.8c-1 .2-2.8.2-4 0-1.3-.2-.5-.4 1.7-.4 2.2-.1 3.2.1 2.3.4zm-11.5 1c-.7.2-1.9.2-2.5 0-.7-.3-.2-.5 1.2-.5s1.9.2 1.3.5zm30.4.9c-.3.3-1.2.4-1.9.1-.8-.3-.5-.6.6-.6 1.1-.1 1.7.2 1.3.5zM151 849.7c0 .8-.9 0-5-4.5l-4.5-4.7 4.8 4.5c2.6 2.4 4.7 4.5 4.7 4.7zm600.7 34.9c-.3.3-1.2.4-1.9.1-.8-.3-.5-.6.6-.6 1.1-.1 1.7.2 1.3.5zm-8.2 2.4c-1.1.5-2.7.9-3.5.9-.9 0-.8-.4.5-.9 1.1-.5 2.7-.9 3.5-.9.9 0 .8.4-.5.9zm-10 3c-1.1.5-2.7.9-3.5.9-.9 0-.8-.4.5-.9 1.1-.5 2.7-.9 3.5-.9.9 0 .8.4-.5.9zm-8.8 2.6c-.3.3-1.2.4-1.9.1-.8-.3-.5-.6.6-.6 1.1-.1 1.7.2 1.3.5zm120.8 30.7c-1.4 2.2-12.8 6.7-14 5.6-.6-.6 12.6-7.8 14.3-7.9.9 0 .9.6-.3 2.3zm-444.7 36.4c-1 .2-2.6.2-3.5 0-1-.3-.2-.5 1.7-.5s2.7.2 1.8.5zm7 1c-1 .2-2.6.2-3.5 0-1-.3-.2-.5 1.7-.5s2.7.2 1.8.5zm-54.9 35.7c1.5 1.8 10.8 4.6 28 8.6 12.5 2.9 22.1 6.5 22.1 8.2 0 1.5-5.4 2.1-15.6 1.5-9.3-.4-11.2-.9-18.1-4.1-4.2-2-10.2-5.2-13.2-7.1-3.1-1.8-6.9-3.7-8.4-4l-2.8-.7 2.8-1.9c3.5-2.2 3.8-2.2 5.2-.5zM728 996c2 0 2.2.2 1 1-2.3 1.5-5.6 1.2-7.1-.7-1.3-1.5-1.1-1.6 1.1-1 1.4.4 3.6.7 5 .7z"/><path d="M590.8 102.7c.6.2 1.8.2 2.5 0 .6-.3.1-.5-1.3-.5-1.4 0-1.9.2-1.2.5zM613.3 102.7c1.5.2 3.7.2 5 0 1.2-.2 0-.4-2.8-.4-2.7 0-3.8.2-2.2.4zM575.8 103.7c.7.3 1.6.2 1.9-.1.4-.3-.2-.6-1.3-.5-1.1 0-1.4.3-.6.6zM635.8 103.7c.6.2 1.8.2 2.5 0 .6-.3.1-.5-1.3-.5-1.4 0-1.9.2-1.2.5zM657 106.5c23 3.8 46.4 9 48.8 10.8.6.5 1.2.6 1.2.2 0-.4.7-.2 1.4.5.8.6 5.5 2.4 10.3 4 4.8 1.5 8.7 3.3 8.6 3.9-.2.6.4.8 1.4.4 1.2-.5 1.4-.3.8.8-.6 1.1-.5 1.1.4.3 1.7-1.6 5.1-.6 4.4 1.2-.3.8 0 1.4.6 1.4s1.1-.5 1.1-1.1c0-.5.5-.7 1-.4.6.4.7 1.2.3 1.8-.4.7.1.6 1.1-.2.9-.8 1.6-1 1.5-.5-.4 2.1.2 2.8 1.2 1.4.8-1.1 1.2-1.2 1.6-.2.2.7 1.4 1.7 2.5 2.3 1.5.8 1.9.8 1.4 0-.4-.6-.2-1.1.3-1.1.6 0 1.1.4 1.1 1 0 .5.7.6 1.7.3 1.1-.4 1.4-.3.9.5-.7 1.1-.3 1.4 2.7 1.6.6.1 1.4.4 1.7.8.3.3 6.5 3.6 13.9 7.2 7.4 3.7 13.9 7 14.5 7.5 2 1.5 4.8 2.1 4.4 1-.2-.6-.6-.9-.9-.7-.3.2-1.3-.5-2.3-1.5-1-.9-2.6-1.7-3.7-1.7s-1.7-.5-1.4-1c.6-1-.7-1.4-3.4-1.1-.7.2-1-.2-.6-.8.6-1.1-.7-1.5-3.4-1.2-.7.2-1-.2-.7-.7 1.2-2-34.6-17.9-56.9-25.2-5.5-1.8-10.5-3.7-11.1-4.1-.6-.5-1.3-.6-1.6-.4-.3.3-1.7.1-3.2-.4-4.1-1.6-20.8-4.8-36.9-7-19.2-2.7-21.9-2.5-4.7.4zM583 106.8c.8.4 10.3.5 21 .2l19.5-.6-21-.2c-11.5-.1-20.3.2-19.5.6zM628 107c2 1.3 4.3 1.3 3.5 0-.3-.6-1.6-1-2.8-1-1.8 0-1.9.2-.7 1zM638 108c2 .5 3.9.5 4.5-.1.5-.5-.8-.9-3.5-.8l-4.5.1 3.5.8zM647.3 109.1c1.1.7 2.3.7 3.5 0 1.4-.9 1.1-1-1.8-1-2.9 0-3.2.1-1.7 1z"/><path d="M654.5 109c-.4.6.6 1 2.2 1 2.2 0 2.5-.2 1.3-1-1.9-1.2-2.7-1.2-3.5 0zM545 110c-.9.6-1 1-.3 1 .6 0 1.5-.5 1.8-1 .8-1.2.4-1.2-1.5 0zM563.8 109.7c.7.3 1.6.2 1.9-.1.4-.3-.2-.6-1.3-.5-1.1 0-1.4.3-.6.6zM660.5 110c-.4.6.4 1 2 1 1.5 0 3.4.4 4.4.9 1 .6 2.3.6 3.2 0 .7-.5 1-.9.4-1-.5-.1-1.9-.3-3-.4-1.1-.1-3-.5-4.2-.9-1.2-.4-2.4-.2-2.8.4zM672 111.8c0 .4 5 1.8 11.2 3.1 6.1 1.4 14.7 3.4 19 4.7 4.3 1.2 7.8 1.8 7.8 1.4 0-.9-4.9-2.4-20.5-6-18-4.2-17.5-4.1-17.5-3.2zM711.5 122c.3.5.8 1 1.1 1 .2 0 .4-.5.4-1 0-.6-.5-1-1.1-1-.5 0-.7.4-.4 1zM520.5 128.9c-22.9 5.9-47.1 14.9-58.9 21.7-3.2 1.9-6.4 3.6-7 3.7-.6.1-1.3.5-1.6.8-.3.3-3.6 2.3-7.5 4.4-11.7 6.4-29 18.1-34.6 23.5l-5.4 5.1 4.3-2.1c2.3-1.1 4-2.5 3.7-3-.4-.6-.2-1 .3-1 .6 0 5-2.6 9.8-5.8 28.4-18.6 51.1-29.5 83.8-40.1 19.7-6.4 32-11 29.6-11-.8 0-8.2 1.7-16.5 3.8z"/><path d="M499 141.4c-21 8-34.3 15.9-46 27-4.1 3.9-9.7 8.9-12.3 11.1-2.6 2.2-4.9 4.7-5 5.5-.2.8-.6 2.1-1 2.8-3 4.7 11-1.1 18.6-7.7 1.8-1.6 5.2-3.8 7.7-5.1 2.5-1.2 5.2-3 6.1-3.9 6.1-6.1 13.3-11.3 21.9-15.6 4.3-2.2 7.4-4.4 7.9-5.8.9-2.3 5.9-7.2 10.1-10 3.5-2.4 1.7-2-8 1.7zM668 141.1c-1.2.8-1 .9.8.4 1.2-.3 2.2-.2 2.2.3 0 .8 4.2 2.3 7.5 2.6 1.7.2 3.6 1.7 3 2.5-.2.5.7.6 2.2.3 1.8-.3 2.4-.1 1.9.7-.6.9 0 1 2 .5 1.9-.5 2.5-.4 2 .5-.6.9 0 1 2 .5 1.9-.5 2.5-.4 2 .5-.6.9 0 1 2 .5 2.1-.5 2.5-.4 1.9.6-.6 1-.3 1.2 1.3.8 1.2-.4 2-.3 1.8.1-.7 1.1 24 7.4 25.5 6.6.8-.6 1-.4.4.5-.6 1-.3 1.2 1.3.8 1.2-.4 2.2-.3 2.2.1 0 .3 1.9 1.1 4.3 1.7 2.3.6 5.1 1.4 6.2 1.8 1.9.7 1.9.7-.1-1.1-2.4-2.1-27.2-12-37.9-15.1-18.3-5.3-32.2-7.8-34.5-6.1zM733 142c1.9 1.1 4 1.9 4.5 1.9.6 0-.6-.8-2.5-1.9-1.9-1.1-3.9-1.9-4.5-1.9-.5 0 .6.8 2.5 1.9zM698 144.6c12.2 3.9 17.3 5.1 15 3.5-2.6-1.8-19.7-7.1-22.7-7-1.7 0 1.2 1.4 7.7 3.5zM751 150.5c0 .2 3.1 2.3 6.9 4.5 3.9 2.3 7.6 4.9 8.3 5.7.7.9-.6.4-3-1.1s-4.8-2.6-5.3-2.4c-.5.2 1.6 2 4.8 4 20 12.6 22.2 14.2 21.2 14.9-.8.4-.1 1.3 1.8 2.2 1.6.9 5.4 3.4 8.4 5.7l5.4 4.1-4.8-4.5c-8.2-7.7-3.8-5.1 7.8 4.7 20.2 16.8 33.9 29.3 41.7 37.8 8 8.8 18.3 21.8 21.9 27.5 1.1 1.9 2.5 3.2 3 2.8 2.1-1.3-16.6-24.6-35.6-44.3-22.8-23.6-47-42.4-74.6-58.1-7.1-4-7.9-4.4-7.9-3.5zM512.5 151.9c-2.8.6-2.9.8-1 1.8 1.2.6 12 1.3 26.9 1.6 13.7.4 25.1.9 25.4 1.2.3.3-.3.5-1.4.5-1.6 0-1.7.2-.4 1 1.1.7.7 1-2 1.1-6.9.4-8.8.6-10.6 1.3-4.3 1.7-17.7 3.6-37.2 5.2-9 .8-10.1 1.5-9.8 6.9.1 2.9.2 3 5.1 2.9 2.8 0 11.3-1 19-2.2 22.1-3.3 33.3-4.2 55.1-4.2 47.5 0 89.6 8.2 131.7 25.6 7.2 3 13.7 5.4 14.4 5.4 2.2 0 24.1 11.8 37.7 20.4 7.1 4.4 14.1 8.8 15.5 9.6 4.4 2.5 9.2 6.1 17.1 12.5 4.1 3.3 8.5 6.8 9.8 7.7 2.2 1.5 23.7 22.5 29.3 28.5 14 15.3 31.7 41.3 43.6 63.8 3.4 6.6 6.3 11.7 6.3 11.4 0-1.2-9.8-21.2-15-30.7-2.8-5-4.9-9.2-4.6-9.2.3 0 1.4 1.7 2.4 3.7 1.9 3.7 1.9 3.7 3.2 1.4 1-1.9 1-2.2-.1-1.6-.9.6-1 .3-.5-1.1.4-1 .4-1.5 0-1.1-.4.4-3.6-4-7-9.8-20.6-34.2-58.3-73.2-91.8-95-19.2-12.4-43.9-25.1-61.4-31.5-3.4-1.3-6.1-2.5-5.9-2.7.3-.3 4.5 1.2 24 8.3 2.2.8 5.7 2.4 7.9 3.5s4.2 1.9 4.4 1.6c.4-.3-11.1-6-22.1-10.7-9-4-26.8-10.1-39-13.5-6.6-1.9-11.3-3.4-10.4-3.4 5.5-.2 62.1 19.1 72.9 24.9 1.1.6 2 .7 2 .2 0-1.6-21.4-10.9-39.4-17.1-16.2-5.6-27.3-8.5-45.9-12.1-32.3-6.1-33.8-6.2-91.7-6.6-29.4-.1-54.8.1-56.5.5zm179 19.1c1.3.6 1.5.9.5.9-.8 0-2.2-.4-3-.9-1.8-1.2-.2-1.2 2.5 0zM789.6 151.7c-.3.3-.6 1.1-.6 1.7 0 .6.5.4 1-.4.8-1.2 1-1 1.1 1 0 1.9.2 2.1.7.8.6-1.6.9-1.5 3.2.3 1.5 1.1 1.8 1.7.8 1.3-1.1-.4-1.8-.1-1.8.6 0 .6.5.8 1 .5.6-.3 1-.1 1 .6 0 .8.5.7 1.7-.2.9-.8 1.4-.9 1.1-.4-.4.6-.3 1.7.3 2.5.7 1.2.9 1.2.9-.3 0-1 .5-1.5 1-1.2.6.4.8 1.1.5 1.6-.4.5.2.6 1.2.2 1.6-.6 1.7-.5.3 1.2-.8 1-1 1.6-.4 1.2.7-.4 1.5.1 1.8 1 .5 1.2 1 1.3 1.8.5.6-.6 1.8-.8 2.7-.5 1.3.5 1.4.3.4-.7-1-1.1-1.5-1.1-2.9.1-1.6 1.2-1.7 1.2-1.1-.3.6-1.8.1-2.3-7.5-7.3-5.6-3.6-7.5-4.5-8.2-3.8zM807.7 166.3c.2.4.8.5 1.3.2.4-.3 1.1.2 1.4 1.1.3.8 1 1.3 1.5.9.6-.3 1.4.3 2 1.2.6 1 1.1 1.2 1.1.5 0-1.9-.4-2.7-1.4-2.4-.5.2-.6-.4-.3-1.2.5-1.1-.2-1.4-2.8-1.3-1.8.1-3.1.5-2.8 1zM728 168.3c.3.2 9.1 4.1 19.5 8.5 27 11.4 32 13.8 30.6 14.6-.6.4-1.1.3-1.1-.2 0-.4-1.9-.8-4.2-.8-2.4.1-4.5-.4-4.7-.9-.7-1.8-3.5-3.3-5-2.7-.9.3-1.2.1-.7-.6.5-.8-.2-1.2-1.9-1.2-1.5 0-2.4.4-2 1 .4.6 1.1.8 1.6.5.5-.4 1.2 0 1.5.8.3.9 1.3 1.3 2.6.9 1.7-.4 2-.2 1.5 1.2-.4.9-.3 1.5.2 1.2.5-.3 1.2.1 1.5 1 .3.8 1 1.3 1.5 1 .5-.3 1.5.1 2.2 1 .7.9 2.2 2 3.4 2.5 1.1.5 4.9 2.7 8.4 4.9 3.4 2.2 6.7 4 7.2 4s.9.5.9 1.1c0 .5.5.7 1 .4.6-.3 1-.1 1 .4 0 .6.7 1.1 1.5 1.1s1.5.4 1.5.9 1.2 1.4 2.8 1.9c1.5.6 4.2 2.4 6.1 4.1 1.9 1.6 3.8 2.8 4.3 2.5.4-.3 1.1.2 1.4 1 .3.8 1.5 1.8 2.5 2.1 1.1.4 2.9 1.6 4.1 2.8 1.1 1.2 1.8 1.5 1.4.7-.4-.8 0-.6.8.4.9 1.1 1.6 1.6 1.6 1.2 0-.5.9.2 2.1 1.5 1.1 1.3 1.7 1.8 1.3 1-.5-.9.2-.7 1.8.5 1.4 1 2.4 2.2 2.2 2.5-.3.5 3.5.5 5.9.1.4-.1-.1-1-1-2.1-1-1-3.1-3.5-4.6-5.5-1.8-2.2-3.5-3.5-4.3-3.2-.8.3-1.4-.1-1.4-.9s-.3-1.4-.8-1.2c-.4.1-1.9-.9-3.2-2.2-1.4-1.3-1.8-2.1-1-1.7.8.4.6 0-.4-.8-1.1-.9-2.5-1.6-3.2-1.6-.7 0-1.6-.5-2-1.2-.5-.7-.2-.9.7-.4.8.4.1-.4-1.6-1.8-1.6-1.4-8.5-5.4-15.2-8.8-12.4-6.4-15.3-8.5-6.9-4.8 6.4 2.7 7.6 2.5 3.5-.4-5.2-3.7-12.3-7.1-24.4-11.7-6-2.3-16.6-6.3-23.5-8.9-13.2-5-17.8-6.6-17-5.7zm100.1 55.9c1.1 2.1 1.1 2.2-.4.9-1-.7-1.7-1.7-1.7-2.2 0-1.5.9-1 2.1 1.3zM817.5 171.1c-1.1 1.7.1 2.1 1.5.4.8-.9.8-1.5.2-1.5-.6 0-1.4.5-1.7 1.1zM820 173.6c0 .6.7 1.7 1.5 2.4s1.5.9 1.5.4.7.2 1.6 1.4c.8 1.2 1.9 2 2.4 1.7.5-.3 1.3.3 1.9 1.2.6 1 1.1 1.3 1.1.7 0-1.4-2.5-3.6-3.3-2.8-.3.3-1-.4-1.7-1.5-.6-1.2-1.5-1.9-2-1.6-.5.3-1.3-.3-1.9-1.2-.6-1-1.1-1.3-1.1-.7z"/><path d="M605.8 178.7c.7.3 1.6.2 1.9-.1.4-.3-.2-.6-1.3-.5-1.1 0-1.4.3-.6.6zM618.3 179.7c.9.2 2.3.2 3 0 .6-.3-.1-.5-1.8-.5-1.6 0-2.2.2-1.2.5zM812 179.3c0 .2 1.5 1.4 3.3 2.7l3.2 2.3-2.4-2.6c-2.1-2.3-4.1-3.5-4.1-2.4zM622.5 181.1c-1.6.5-3.8.6-4.9.3-1-.4-1.6-.2-1.3.3.4.6 3.9 1.3 7.9 1.6 9.4.8 39.2 6.9 52.7 10.8 36.7 10.5 73.2 30.1 105.1 56.4 4.7 3.8 9.7 7.6 11.2 8.4 1.5.7 7.8 6.3 14 12.2 6.2 6 11.6 10.9 12 10.9.4 0 .4-.7.1-1.7-.5-1.1-.3-1.4.6-.9.9.6.8-.1-.2-2.1-.9-1.6-6.2-7.1-11.9-12.3l-10.3-9.4 9.5 10c5.2 5.4 10.1 10.5 10.9 11.1 1.6 1.4.9 2.9-.9 1.8-.6-.4-2-2-2.9-3.6-2-3.3-26.5-25.8-34.8-32.2-4.9-3.7-6-4.7-4.9-4.7.8 0 12.7 9.9 18 14.9 3.1 3 4.3 3.7 3.2 2-1.3-2.1-8-7.8-22.1-18.8-1.8-1.5-1.9-1.5-.6.1.7 1 .9 1.8.3 1.8-1.2 0-3.4-2.5-2.7-3.2.3-.3-.3-1.1-1.2-1.9-1.6-1.3-1.7-1.2-.4.3 1.8 2.4.6 2.3-3-.3-1.6-1.1-2.7-2.4-2.4-2.9.3-.5 0-1.2-.6-1.6-.8-.5-.9-.3-.4.6.5.8.3 1.1-.6.8-.8-.3-1.4-1-1.4-1.5 0-.6-.4-1.5-.9-2s-.6-.2-.1.6c.5.9.3 1.2-.6.9-.8-.3-1.4-1-1.4-1.5 0-.6-.4-1.5-.9-2s-.6-.2-.1.6c.5.9.3 1.2-.6.9-.8-.3-1.4-1.1-1.4-1.8 0-.8-1.5-2.3-3.4-3.4-2.4-1.4-3.2-1.6-2.6-.5.4.7-.4.1-1.8-1.4-1.5-1.5-3.2-2.5-3.7-2.2-.6.3-1 .2-1-.3 0-1.2-21.7-11.9-33.7-16.6-20.7-8.1-62.4-18.6-68.9-17.3-1.4.2-2.1 0-1.7-.6.4-.6-.9-.8-3.7-.4-2.9.4-3.9.2-2.9-.4 1.9-1.2-4.5-1.1-8.6.2zm131.1 42.7c-.4.3-1.4-.2-2.4-1.2-1.6-1.8-1.6-1.8.6-.6 1.3.6 2.1 1.4 1.8 1.8z"/><path d="M565.5 183.7c-2.2.2-11.6 1.5-21 2.8-41.5 6-80.5 19.1-118.8 40.1-13.8 7.5-42.9 26.4-44.9 29.1-.7 1-4.8 4.7-9 8.2-4.3 3.5-7.8 6.6-7.8 6.9 0 .3.8-.2 1.8-1 2.8-2.5 13.5-9.1 12.8-7.9-.4.6 4.6-2.4 11.1-6.8 41.5-27.7 82-45.3 133.5-58 29.9-7.4 38.2-8.5 65.8-8.6 25.6 0 42.9.7 44.7 1.8.7.4 2.3.5 3.6.1 1.4-.3 2.8-.1 3.2.6.4.6 1.5.8 2.5.5 2.9-.9 39 7.3 53 12.1 1 .3 1.2.2.5-.4-1.6-1.6-23-8.2-36.5-11.3-30-6.8-71-10.4-94.5-8.2zM800 188.4c0 .2.8 1 1.8 1.7 1.5 1.3 1.6 1.2.3-.4s-2.1-2.1-2.1-1.3zM843.5 191c1 1.1 2 2 2.3 2 .3 0-.3-.9-1.3-2s-2-2-2.3-2c-.3 0 .3.9 1.3 2z"/><path d="M567.5 194.3c-7.2 1.1-5.3 1.2 20.5 1.2 15.7 0 29.4.4 30.5.9 1.7.8 15.3 4.1 20.5 5 .8.1 2.2.5 3 .9.8.4 6 1.6 11.5 2.8 29.5 6.3 58.2 17.6 85.8 34 9.9 5.9 31.9 21.4 38.5 27.1 1.8 1.6 3.7 2.6 4.2 2.3.5-.3 1.2 0 1.6.6.5.8.3.9-.7.4-.8-.5-.3.3 1.1 1.8 2.6 2.8 4.6 3.6 3.5 1.4-.4-.6 3.2 2.8 7.9 7.8 4.7 4.9 8.6 8.7 8.6 8.2 0-.4 1.4.7 3.1 2.5 1.7 1.8 1.2.8-1.2-2.2-7.7-9.7-26-27.9-36.5-36.2-5.6-4.4-10.4-7.9-10.8-7.7-.3.2-1.2-.5-2-1.6-.9-1.1-1.6-1.6-1.6-1.2 0 .4-2.6-1-5.7-3.1-14-9.3-36.8-20.7-56-27.8-9.1-3.4-15.3-6.6-9.3-4.9 14 4.1 56.5 23.6 60 27.6.7.7 4 1.9 4 1.4 0-.2-3.7-2.6-8.2-5.3-28.5-17.1-61.3-28.5-98.3-34.3-17-2.6-60.7-3.5-74-1.6zM554.3 196.7c.9.2 2.5.2 3.5 0 .9-.3.1-.5-1.8-.5-1.9 0-2.7.2-1.7.5zM548.8 197.7c.6.2 1.8.2 2.5 0 .6-.3.1-.5-1.3-.5-1.4 0-1.9.2-1.2.5zM700 205c.8.5 2 1 2.5 1 .6 0 .3-.5-.5-1s-1.9-1-2.5-1c-.5 0-.3.5.5 1zM587.8 207.7c.6.2 1.8.2 2.5 0 .6-.3.1-.5-1.3-.5-1.4 0-1.9.2-1.2.5zM569.8 208.7c.7.3 1.6.2 1.9-.1.4-.3-.2-.6-1.3-.5-1.1 0-1.4.3-.6.6zM573.8 208.7c.6.2 1.8.2 2.5 0 .6-.3.1-.5-1.3-.5-1.4 0-1.9.2-1.2.5z"/><path d="M627.8 216.7c.7.3 1.6.2 1.9-.1.4-.3-.2-.6-1.3-.5-1.1 0-1.4.3-.6.6zM635.3 217.7c.9.2 2.3.2 3 0 .6-.3-.1-.5-1.8-.5-1.6 0-2.2.2-1.2.5zM856 223.4c0 .2.8 1 1.8 1.7 1.5 1.3 1.6 1.2.3-.4s-2.1-2.1-2.1-1.3zM714 228.4c0 .2.7.7 1.6 1 .8.3 1.2.2.9-.4-.6-1-2.5-1.4-2.5-.6zM834 233.4c0 .7.7 1.3 1.5 1.3s1.5-.4 1.5-.8-.7-.9-1.5-1.3c-.9-.3-1.5 0-1.5.8zM724.4 233.9c.4.6.2 1.1-.3 1.1-.6 0-1.1.8-1.1 1.7 0 1.5.2 1.4 1.4-.3.8-1 1.8-1.6 2.2-1.1.4.4.2.7-.4.7-.7 0-1.2.8-1.2 1.7 0 1.5.2 1.6 1 .3.8-1.2 1-1.2 1 .5s.2 1.7 1 .5c.8-1.3 1-1.3 1 .2 0 .9.5 2 1 2.3 1.7 1.1 1.1-1.4-.9-3.4-1.1-1.1-1.7-2.2-1.4-2.4.2-.3-.5-1.1-1.7-1.7-1.5-.8-2-.8-1.6-.1zM864.7 234.1c.7.7 1.5 1 1.8.7.3-.3-.2-.9-1.2-1.2-1.4-.6-1.5-.5-.6.5zM731.7 238.7c-.3.5-.1 1.7.4 2.8.6 1.7.7 1.6.6-.8-.1-2.8-.3-3.2-1-2zM871.1 242c2.9 4.5 2.9 4.5 2.9 3.4 0-.5-1.2-2.3-2.6-3.9l-2.6-3 2.3 3.5zM734 242.2c0 .9.5 2 1 2.3 1.3.8 1.3-.5 0-2.5-.8-1.3-1-1.3-1 .2zM739.6 246.3c.3 1 .9 1.5 1.2 1.2.3-.3 0-1.1-.7-1.8-1-.9-1.1-.8-.5.6zM742 247.9c0 .5.5 1.3 1 1.6.6.3 1 .2 1-.4 0-.5-.4-1.3-1-1.6-.5-.3-1-.2-1 .4zM630.5 249.8c.6.6 3 1.4 5.5 1.7 5 .6 3-.7-3-2-2.4-.5-3.2-.4-2.5.3zM745 250c0 .5.5 1 1.1 1 .5 0 .7-.5.4-1-.3-.6-.8-1-1.1-1-.2 0-.4.4-.4 1zM748 252c0 .5.5 1 1.1 1 .5 0 .7-.5.4-1-.3-.6-.8-1-1.1-1-.2 0-.4.4-.4 1zM751 254c0 .5.5 1 1.1 1 .5 0 .7-.5.4-1-.3-.6-.8-1-1.1-1-.2 0-.4.4-.4 1zM871 259c.6 1.1 1.3 2 1.6 2 .2 0 0-.9-.6-2s-1.3-2-1.6-2c-.2 0 0 .9.6 2zM874 264c.6 1.1 1.3 2 1.6 2 .2 0 0-.9-.6-2s-1.3-2-1.6-2c-.2 0 0 .9.6 2zM646 263.4c0 .2.9.6 2 .9 1.1.3 1.8.1 1.4-.4-.5-.9-3.4-1.3-3.4-.5zM878.2 271.5c1.2 2.4 2.3 4.3 2.6 4.1.4-.5-3.6-8.6-4.3-8.6-.3 0 .5 2 1.7 4.5zM661 272c2.4 1.9 3.6 2.4 5.3 2.1.4 0 .7.3.7.7 0 .5 3.4 2.6 7.5 4.7 4.1 2.2 7.5 4.3 7.5 4.8 0 .4.5.5 1 .2.6-.3 1-.1 1 .6s.3 1 .6.6c.4-.3 1.3.1 2.1.9s1.9 1.1 2.5.8c1.4-.9.4-1.7-9.6-7.4-10.3-5.9-22.8-11.3-18.6-8zM819 273.4c0 .2.8 1 1.8 1.7 1.5 1.3 1.6 1.2.3-.4s-2.1-2.1-2.1-1.3zM823 277.8c0 1.2 1.9 2.6 2.6 1.9.2-.2-.2-1-1.1-1.7-.9-.8-1.5-.8-1.5-.2zM570.3 280.7c.9.2 2.3.2 3 0 .6-.3-.1-.5-1.8-.5-1.6 0-2.2.2-1.2.5zM830 286.9c0 .6.4 1.3 1 1.6.6.3.7-.1.4-.9-.7-1.8-1.4-2.1-1.4-.7zM714 298.4c0 .2.8 1 1.8 1.7 1.5 1.3 1.6 1.2.3-.4s-2.1-2.1-2.1-1.3zM844 303c1.2 1.6 2.4 3 2.6 3 .3 0-.4-1.4-1.6-3-1.2-1.7-2.4-3-2.6-3-.3 0 .4 1.3 1.6 3zM278.9 306c-.1.5-.2 1.6-.3 2.2-.1.7-.7 1.9-1.4 2.7-.7.7-1.1 2-.8 2.7.3.8.1 1.4-.5 1.4s-.9.7-.5 1.5c.3.8.1 1.5-.4 1.5-2.1 0-13.1 40.6-12.9 47.5.1 2.7.2 2.6 1-1 1.3-6.5 1.6-7.6 3.9-15.7 1.2-4.3 1.8-8.3 1.5-8.8-.4-.6-.1-.9.7-.8.8.2 1.2-.4 1-1.5-.2-.9.2-1.7.8-1.7.8 0 .8-.6 0-2-.6-1.1-.7-2-.3-1.9 2.1.3 2.4-.2 1.2-1.8-1.2-1.4-1.2-1.6 0-.8 1.1.6 1.3.3.9-1.3-.4-1.2-.2-2.2.4-2.2.6 0 .8-.7.4-1.5-.3-.8-.1-1.5.5-1.5s.9-.7.6-1.4c-.4-.9-.1-1.3.6-1 .7.2 1.3-.3 1.4-1.3.3-4.1 1-7.3 2-8.5.9-1.3 1.6-5.8.7-5.8-.2 0-.5.4-.5 1zM730.9 315.5c3.5 3.8 8.2 9.6 10.4 12.7 2.2 3.2 4.3 5.6 4.5 5.3.8-.8-10.2-14.6-15.9-20-5-4.7-4.9-4.6 1 2zM873 320.5c-.9 1.1-.9 1.5-.1 1.5.7 0 .9.4.6 1-.3.5-.1 1 .5 1s.9.4.6.9c-.4.5-.2 1.1.3 1.3.4.1 2 2.5 3.3 5.2 1.9 3.7 2.6 4.5 3.1 3.2.5-1.1.3-1.5-.5-1s-.9.2-.5-1c.4-.9.3-1.5-.2-1.2-1.1.7-2.3-2.2-1.4-3.6.4-.7.1-.8-.7-.3-1 .6-1.2.4-.7-.9.5-1.1.3-1.5-.5-1s-.9.2-.5-1c.5-1.1.3-1.5-.5-1s-.9.2-.5-1c.5-1.1.3-1.5-.5-1s-.9.2-.5-.9c.8-2.1.3-2.2-1.3-.2zM747 336c0 .5.5 1 1.1 1 .5 0 .7-.5.4-1-.3-.6-.8-1-1.1-1-.2 0-.4.4-.4 1zM756 349c.6 1.1 1.3 2 1.6 2 .2 0 0-.9-.6-2s-1.3-2-1.6-2c-.2 0 0 .9.6 2zM887 355.5c0 .5.5 1.7 1 2.5s1 1 1 .5c0-.6-.5-1.7-1-2.5s-1-1.1-1-.5zM266.1 361.6c0 1.1.3 1.4.6.6.3-.7.2-1.6-.1-1.9-.3-.4-.6.2-.5 1.3zM265.2 367c0 1.4.2 1.9.5 1.2.2-.6.2-1.8 0-2.5-.3-.6-.5-.1-.5 1.3zM261.2 371.5c0 1.6.2 2.2.5 1.2.2-.9.2-2.3 0-3-.3-.6-.5.1-.5 1.8zM777 371.5c0 .5.5 1.7 1 2.5s1 1 1 .5c0-.6-.5-1.7-1-2.5s-1-1.1-1-.5zM893 373.5c0 1.4.4 2.5.9 2.5.4 0 .6-1.1.3-2.5-.2-1.4-.6-2.5-.8-2.5-.2 0-.4 1.1-.4 2.5zM747.6 377.3c.3 1 .9 1.5 1.2 1.2.3-.3 0-1.1-.7-1.8-1-.9-1.1-.8-.5.6zM752 386.5c0 .5.5 1.7 1 2.5s1 1 1 .5c0-.6-.5-1.7-1-2.5s-1-1.1-1-.5zM811.1 391c0 .8.4 2.4.9 3.5.5 1.3.9 1.4.9.5 0-.8-.4-2.4-.9-3.5-.5-1.3-.9-1.4-.9-.5zM764.1 397c0 .8.4 2.2.9 3 1.2 1.8 1.2.2 0-2.5-.6-1.3-.9-1.5-.9-.5zM813.1 399.6c0 1.1.3 1.4.6.6.3-.7.2-1.6-.1-1.9-.3-.4-.6.2-.5 1.3zM751.8 412.8c.2 1.8.8 3.2 1.3 3.2 1.3 0 1.1-2.4-.4-4.5-1.3-1.6-1.4-1.5-.9 1.3zM753 419.2c0 1.2.1 1.9.3 1.7.1-.2.9-1.2 1.6-2.2 1.2-1.4 1.1-1.7-.3-1.7-1 0-1.6.8-1.6 2.2zM758 418c0 .5-.6 1-1.4 1-1.3 0-2.6 2.9-2.6 6 0 1.3.1 1.3 1 0 .7-1.1.8-.3.4 2.5-1.3 8.7-1.6 18.6-.8 31.5l.8 13.5.8-7c.5-3.9.6-13.1.4-20.5-.5-10.5-.3-13.9.8-15.3 1.2-1.6 1.4-1.3 2 2.5 1.8 11.3 2.9 16.9 3.3 16.5.6-.7-2.6-24.7-3.4-26.1-.4-.6-.6-2.1-.4-3.4.1-1.2 0-2.2-.3-2.2s-.6.4-.6 1zM730.5 419.1c-.4.6-.5 1.2-.2 1.5.2.3.7-.2 1-1.1.7-1.7.1-2-.8-.4zM842.2 422c0 1.4.2 1.9.5 1.2.2-.6.2-1.8 0-2.5-.3-.6-.5-.1-.5 1.3zM840.2 425.4c.1 1.4.5 2.3.9 2 .7-.4 0-4.4-.7-4.4-.2 0-.3 1.1-.2 2.4zM256.2 436.5c0 1.6.2 2.2.5 1.2.2-.9.2-2.3 0-3-.3-.6-.5.1-.5 1.8z"/><path d="M757.2 437.5c0 1.6.2 2.2.5 1.2.2-.9.2-2.3 0-3-.3-.6-.5.1-.5 1.8zM739.3 445.5c0 3.3.2 4.5.4 2.7.2-1.8.2-4.5 0-6s-.4 0-.4 3.3zM834.1 441.6c0 1.1.3 1.4.6.6.3-.7.2-1.6-.1-1.9-.3-.4-.6.2-.5 1.3zM257.2 445c0 1.9.2 2.7.5 1.7.2-.9.2-2.5 0-3.5-.3-.9-.5-.1-.5 1.8zM449 445c0 .5.7.7 1.5.4.8-.4 1.5-.8 1.5-1 0-.2-.7-.4-1.5-.4s-1.5.4-1.5 1zM456.5 447c-.5.8 5.3 2.6 6 1.8.2-.2-.9-.9-2.5-1.5-1.7-.6-3.2-.7-3.5-.3zM456 449.7c.8.3 1.8 1.1 2.2 1.7.4.6 1 .7 1.5.3.9-1-1.6-2.7-3.7-2.6-1.3.1-1.3.1 0 .6zM461.5 450.9c-.3.5-.2 1.2.3 1.5.5.3.9-.1.9-.9 0-1.7-.3-1.9-1.2-.6zM238.2 455.5c0 1.6.2 2.2.5 1.2.2-.9.2-2.3 0-3-.3-.6-.5.1-.5 1.8zM769.6 473.5c.3 4.9 1.2 12.6 2.1 17 2.3 12.6 4.2 14.7 5.9 6.5 1-4.6.9-5.3-1.2-7.5-1.4-1.5-2.9-5.2-3.8-9.7-3.4-15.4-3.6-15.9-3-6.3zM310.2 472.2c-.7.7-1.2 1.9-1.2 2.7 0 1.2.2 1.3.9.3.6-1 1-1 2.1.3.8 1 .9 1.5.1 1.5-.6 0-1.1.4-1.1.8s.9.8 2 .8c1.3 0 1.9-.5 1.5-1.4-.3-.7-.5-1.8-.5-2.3 0-.5-.7-.9-1.6-.9-1 0-1.4-.6-1-1.5.7-1.8.4-1.9-1.2-.3zM314 481.6c0 .8.5 1.2 1 .9.6-.4.8-1.1.5-1.6-.9-1.4-1.5-1.1-1.5.7zM674.1 488.6c0 1.1.3 1.4.6.6.3-.7.2-1.6-.1-1.9-.3-.4-.6.2-.5 1.3zM273 491.5c0 .5.5 1.7 1 2.5s1 1 1 .5c0-.6-.5-1.7-1-2.5s-1-1.1-1-.5zM332.4 539.5c-1.8 1.4-1.8 1.4.4 1.5 1.6 0 2.2.6 2.2 2.1 0 1.8-.2 1.9-1.5.9-1.3-1.1-1.5-.8-1.5 1.4 0 1.4.4 2.6.9 2.6.4 0 .6 1 .4 2.2-.2 1.3.2 5.2.9 8.7 1.1 5 1.8 6.5 3.3 6.7 1.1.2 2.1.8 2.3 1.3.6 1.7 2.2 1.3 2.2-.5 0-.9.5-1.2 1.2-.8.7.5.9.2.5-.8-.3-.9 0-2.1.6-2.7.6-.6.7-1.1.1-1.1-.5 0-.2-.5.6-1 1-.6 1.1-1 .3-1-.7 0-1.3-.5-1.3-1.2 0-.6-.8-2-1.7-3.1-1-1.1-1.3-1.7-.6-1.4.7.5.9 0 .6-1.3-.3-1.1-.9-1.8-1.3-1.5-.5.3-1.1.1-1.5-.5-.3-.5 0-1 .7-1s.2-1-1.2-2.1-1.9-1.8-1.3-1.4c.9.4 1.1.1.7-.9-.3-.9-1-1.6-1.5-1.6s-.9-.9-.9-1.9c0-2.7-1.4-3.3-3.6-1.6zM349 540c.6 1.1 1.2 2 1.4 2 .2 0 .2-.9-.1-2-.3-1.1-.9-2-1.5-2-.5 0-.4.9.2 2zM812.6 553.5c-3.5 3.5-4.3 13.5-1.1 13.5 3.7 0 8-10.5 5.5-13.5-1.6-1.9-2.5-1.9-4.4 0zM345.9 564.2c0 .2-.2 1.4-.5 2.7-.4 2.1-.2 2.2 1.2 1 1-.8 1.2-1.5.5-1.7-.6-.2-.9-.8-.5-1.3.3-.5.3-.9 0-.9s-.6.1-.7.2zM312 566.4c0 .2.8 1 1.8 1.7 1.5 1.3 1.6 1.2.3-.4s-2.1-2.1-2.1-1.3zM599 602c.8.5 2 1 2.5 1 .6 0 .3-.5-.5-1s-1.9-1-2.5-1c-.5 0-.3.5.5 1zM606 605c.8.5 2 1 2.5 1 .6 0 .3-.5-.5-1s-1.9-1-2.5-1c-.5 0-.3.5.5 1zM624.8 605.7c.7.3 1.6.2 1.9-.1.4-.3-.2-.6-1.3-.5-1.1 0-1.4.3-.6.6zM243.5 308.1c-.4.6-.5 1.2-.2 1.5.2.3.7-.2 1-1.1.7-1.7.1-2-.8-.4zM240.6 313.9c-2.3 4.3-2 5.2.5 1.2 1.1-1.8 1.8-3.5 1.5-3.8-.2-.3-1.2.9-2 2.6zM228.1 367.6c0 1.1.3 1.4.6.6.3-.7.2-1.6-.1-1.9-.3-.4-.6.2-.5 1.3zM227.1 372.6c0 1.1.3 1.4.6.6.3-.7.2-1.6-.1-1.9-.3-.4-.6.2-.5 1.3zM226.1 377.6c0 1.1.3 1.4.6.6.3-.7.2-1.6-.1-1.9-.3-.4-.6.2-.5 1.3zM225.2 383c0 1.4.2 1.9.5 1.2.2-.6.2-1.8 0-2.5-.3-.6-.5-.1-.5 1.3zM224.2 390c0 1.4.2 1.9.5 1.2.2-.6.2-1.8 0-2.5-.3-.6-.5-.1-.5 1.3zM223.3 398.5c0 2.2.2 3 .4 1.7.2-1.2.2-3 0-4-.3-.9-.5.1-.4 2.3zM222.3 409.5c0 3.3.2 4.5.4 2.7.2-1.8.2-4.5 0-6s-.4 0-.4 3.3zM221.1 430.2c0 4.9.2 8.8.7 8.8.4 0 .6-2.8.4-6.2-.5-10.7-.9-11.7-1.1-2.6zM254.1 631c1.4 3.1 1.9 3.6 1.9 2.4 0-.6-.7-1.9-1.6-3-1.4-1.8-1.4-1.8-.3.6zM283 634c.6 1.1 1.3 2 1.6 2 .2 0 0-.9-.6-2s-1.3-2-1.6-2c-.2 0 0 .9.6 2zM263.1 654.5c0 .5.8 2.6 1.9 4.5 1.1 1.9 1.9 3 1.9 2.5 0-.6-.8-2.6-1.9-4.5-1.1-1.9-1.9-3.1-1.9-2.5zM312 684.5c0 .2 1 1 2.3 1.6 2 1.1 2.1 1.1.8-.4-1.3-1.6-3.1-2.3-3.1-1.2zM336 698.4c0 .2.8 1 1.8 1.7 1.5 1.3 1.6 1.2.3-.4s-2.1-2.1-2.1-1.3zM365 718.4c0 .2.8 1 1.8 1.7 1.5 1.3 1.6 1.2.3-.4s-2.1-2.1-2.1-1.3zM503 507c0 .5.5 1 1.1 1 .5 0 .7-.5.4-1-.3-.6-.8-1-1.1-1-.2 0-.4.4-.4 1zM508.4 511.8c.4.3 1.4.7 2.2.8.9.1 1.3 0 1-.4-.4-.3-1.4-.7-2.2-.8-.9-.1-1.3 0-1 .4zM593.8 909.7c.6.2 1.8.2 2.5 0 .6-.3.1-.5-1.3-.5-1.4 0-1.9.2-1.2.5zM733.7 96.1c.7.7 1.5 1 1.8.7.3-.3-.2-.9-1.2-1.2-1.4-.6-1.5-.5-.6.5zM763.5 110.8c.6.6 2.8 1.8 5 2.7 2.2.9 3.6 1.2 3 .6-.5-.5-2.8-1.7-5-2.6-2.2-.9-3.5-1.2-3-.7zM819 122.4c0 .3.9 1 2 1.6 1.1.6 2 .8 2 .6 0-.3-.9-1-2-1.6-1.1-.6-2-.8-2-.6zM867.6 132.9c-.4.5 3.1 3.5 7.6 6.7 7.7 5.4 14.8 9.7 14.8 8.8 0-.7-15-11.4-16-11.4-.5 0-1-.4-1-.9s-1.1-1.2-2.5-1.5c-1.4-.4-2.3-1.1-2-1.6.3-.6.4-1 .1-1-.3 0-.7.4-1 .9zM817.5 141.1c.4.6 1.4.8 2.2.5.8-.3 1.2-.2.9.3-.8 1.2 4.2 4.3 5.6 3.5.6-.4.8-.3.5.3-.7 1.1 3.5 4.4 6 4.7.9.2 1.9 1 2.5 1.9.5.9 1.8 1.7 2.9 1.7 1.1 0 1.7.4 1.4 1-.3.5 0 1 .8 1s1.7.7 2.1 1.5c.3.8 1.2 1.5 2 1.5.7 0 2.1 1.2 3.1 2.6.9 1.4 1.8 2.4 2 2.2.6-.5 12 9.8 26.9 24.2 15.6 15.1 31.6 33.4 46.2 52.9 6.6 8.7 12.7 16.4 13.7 17 2 1.3-3.8-7.6-11.2-17.3-2.5-3.3-4-5.6-3.4-5.3.7.4 6.7 8.1 13.4 17 13.5 17.9 15.4 20.1 11.9 14.2-12.3-20.9-29.7-42.3-55.2-67.8-11.4-11.5-21.1-20.6-21.6-20.3-1 .6-10.8-7.3-10.5-8.4.1-.4-.7-1.6-1.9-2.6-1.2-1.1-1.8-1.3-1.3-.5.5.9.3 1.2-.6.9-.8-.3-1.4-1-1.4-1.6 0-1.3-4.4-5.5-10-9.7-16-11.9-29.6-19.7-27-15.4zm55.5 40.4c1.3 1.4 2.1 2.5 1.8 2.5-.2 0-1.5-1.1-2.8-2.5-1.3-1.4-2.1-2.5-1.8-2.5.2 0 1.5 1.1 2.8 2.5zm42.1 45.2c1.3 1.6 1.2 1.7-.3.4-1-.7-1.8-1.5-1.8-1.7 0-.8.8-.3 2.1 1.3zm5 6c1.3 1.6 1.2 1.7-.3.4-1-.7-1.8-1.5-1.8-1.7 0-.8.8-.3 2.1 1.3zM846 140.4c0 .2.8 1 1.8 1.7 1.5 1.3 1.6 1.2.3-.4s-2.1-2.1-2.1-1.3zM891 149.4c0 .2.8 1 1.8 1.7 1.5 1.3 1.6 1.2.3-.4s-2.1-2.1-2.1-1.3zM899.9 156.7c2.8 2.6 4 4.3 3.1 4.3-.9 0-2.1-.5-2.7-1.1-.6-.6-1.3-.7-1.7-.1-.3.5.7 2 2.2 3.3 2 1.9 2.3 1.9 1.2.4-.8-1.1.6-.1 3.1 2.3 2.5 2.3 4.7 4 5 3.7.3-.2 3.2 2.2 6.4 5.5 3.3 3.3 5.4 6 4.8 6-.6 0-2.7-1.8-4.6-3.9-1.9-2.2-3.7-3.8-3.9-3.6-.2.2-3.2-1.9-6.8-4.6-6.4-4.8-9-5.9-9-3.9 0 .6 3.4 4.6 7.6 9 4.2 4.4 7.3 8 6.9 8-.4 0-3.2-2.3-6.3-5-5.5-4.9-8.8-6.7-6.1-3.3.8 1 4.8 5.4 9 9.8s10.7 11.5 14.5 15.9c3.8 4.3 9.8 11.1 13.3 15 3.5 3.9 8.9 10.5 12 14.6 6.3 8.6 20.2 26 20.7 26s-2.4-7.1-4.7-11.3c-2.7-5-1.7-4.7 2.6.9 3.1 4.2 3.5 4.4 3.5 2.3.1-2.3.2-2.3 3.1 1.1 1.7 1.9 7.1 8.9 12.1 15.5 4.9 6.6 9.4 11.9 9.9 11.8.5-.2 2.9 3.8 5.4 8.7 2.5 5 4.3 9 4.1 9-.2 0-3.9-5-8.1-11-4.3-6.1-7.9-11-8-11-.9 0 3.1 8.9 7.5 16.7 2.8 5 6.1 11.7 7.4 15 1.3 3.2 2.7 6.7 3.1 7.8.5 1.1.7 2.3.7 2.7-.1.5.3.8.9.8.5 0 .7.4.4 1-.3.5-.1 1 .4 1 .6 0 1.1.4 1.1 1 0 2.6-2.9.5-4.6-3.3-1-2.3-4.2-7.6-7-11.8-2.8-4.2-6.5-10.1-8.3-13.2-1.8-3.2-3.4-5.7-3.7-5.7-.6 0 1.7 4.9 8.4 17.3 4 7.5 6.7 13.9 7.3 17.5 1.2 6.5 7.5 20.5 8.9 19.7.5-.3-.4-4.2-2.1-8.7-2.3-6.2-2.6-7.8-1.3-6.7 1.5 1.2 1.6 1.2 1-.7-.4-1.5-.2-2.3.8-2.7 1.1-.5 2.7 1.5 5.6 7.2 6.4 12.3 8.6 14.2 6 5.2-1.6-5.8-.3-4.7 3 2.5 5 11 10.9 29.4 11.5 35.9l.6 6-2.5-3c-3.4-4-3.3-2 .2 3.6 1.6 2.5 3.1 5.1 3.4 5.9.5 1.2.7 1.1 1.4-.4 1.3-3.2-1.4-15.3-6.7-30.6-2.8-8-5.1-15.5-5.1-16.7 0-1.3-.4-2-.9-1.7-.5.3-.6-.1-.3-.9 1.5-4.1-27.9-59.9-30.7-58.1-.5.3-.6-.1-.4-.9.3-.7-.6-2.5-1.9-4-1.4-1.5-2.5-3-2.5-3.3 0-.5-.3-.9-13.2-19.3-13.1-18.6-28.6-37.1-47.1-56.3-4-4.2-6.7-7.3-5.8-6.8.8.5 2.8 2.2 4.4 3.9 1.6 1.7 3.2 2.8 3.7 2.6 1.8-1.2 14.8 11.8 24.9 24.8 1.9 2.4 5 5.5 6.9 6.7l3.4 2.2-2.4-3.3c-6.6-9.4-37.3-40.5-52.9-53.7-14.8-12.5-18.3-15.3-12.1-9.5zM206 163.1c-11.7 9.7-28.2 25-27.6 25.7.3.2 4.9-3.5 10.3-8.4s13.2-11.8 17.3-15.4c10.3-8.8 10.6-9 9.5-9-.6.1-4.8 3.3-9.5 7.1zM894.1 169.4c1.3 1.4 2.6 2.3 2.8 2 .6-.6-3-4.4-4.2-4.4-.5 0 .1 1.1 1.4 2.4z"/><path d="M910 170.4c0 .2.8 1 1.8 1.7 1.5 1.3 1.6 1.2.3-.4s-2.1-2.1-2.1-1.3zM170.5 195c-3.3 3.3-5.6 6-5.3 6 .4 0-1.9 2.5-5.1 5.5-3.1 3-7.2 7.6-9.1 10.2l-3.3 4.8 6.6-6.4c3.6-3.6 6.4-6.8 6.1-7.2-.2-.4 1.6-2.4 4.1-4.5 2.5-2 4.3-3.9 4-4.2-.3-.3 1.6-2.7 4.2-5.4 2.6-2.6 4.5-4.8 4.2-4.8-.2 0-3.1 2.7-6.4 6zM247 194.7c-6.1 5-19 16.4-19 16.9 0 .4 18.5-14.9 22-18.2 2.5-2.4.5-1.5-3 1.3zM885 199.2c2.4 2.7 4.5 4.8 4.7 4.8.8 0 0-.9-4.4-5l-4.8-4.5 4.5 4.7zM910 209.7c0 .6 2.3 3.1 5 5.7 2.8 2.6 5 4.9 5 5.1 0 .8 5 6.5 9.8 11.2 2.3 2.3 4.2 4.6 4.2 5.1 0 .6.7 1.2 1.5 1.6.8.3 1.4 1.1 1.3 1.8-.2.7.2 1.2.9 1.1 1.2-.3 3.6 3.1 3.8 5.2.1.5.7.9 1.4.7.9-.2 1.1.3.7 1.5-.4.9-.4 1.4 0 1 .4-.4 1.4-.1 2.3.6 1.3 1-4.3-7.8-5.9-9.3-.3-.3-3.2-3.7-6.4-7.5-11.4-13.5-17-19.5-18.2-19.5-.7 0-2.2-1.2-3.3-2.6-1.2-1.5-2.1-2.2-2.1-1.7zM210.5 228.2l-15 15.3 14-13.5c12.6-12.2 17.2-17 16.3-17-.2 0-7.1 6.9-15.3 15.2zM155.9 216.2c-.9.7-2.4 2.6-3.4 4.3l-1.9 3 2.5-1.6c1.3-.9 2.2-1.9 1.9-2.2-.3-.3.4-1.4 1.4-2.6 2.1-2.3 1.8-2.8-.5-.9zM948.2 247.2c.7 1.5 1.5 2.3 1.7 1.7.2-.6-.4-1.8-1.3-2.7-1.5-1.5-1.5-1.5-.4 1zM189.2 250.8c-5.6 5.8-21.5 25.5-27.6 34.2-2.4 3.5 1.5-.9 6.4-7 2.8-3.6 6.3-8 7.8-9.9 1.5-1.9 6-7.2 10-11.8 4.1-4.6 7.1-8.3 6.7-8.3-.4 0-1.9 1.3-3.3 2.8zM953.6 255.1c1.5 2.4 3 4.6 3.4 4.9.7.5 11.9 17.3 13 19.5.3.5 2.2 3.5 4.2 6.6 6.1 9.5 16.8 29.2 16.2 30.1-.3.4 0 .8.5.8 1.5 0 8.3 13.9 7.5 15.2-.5.7-.2.8.6.3 1-.6 1.2-.4.6 1.1-.4 1-.4 1.5 0 1.2.9-1 6.6 11.1 5.7 12.4-.3.6-.2.8.3.5.6-.3 2.9 4 5.4 9.6 4.5 10.6 7.9 16.7 6.5 11.7-2.7-9.3-18.1-43.1-27.5-60-9.9-18-27.1-44.9-29.2-45.8-.5-.2-.8-.8-.8-1.3 0-1.2-6.9-10.3-8.2-10.8-.5-.2.3 1.6 1.8 4zM1013 333c0 .5 1.8 3.8 4 7.2 4.9 7.8 5.2 6.7.5-1.9-3.5-6.1-4.5-7.3-4.5-5.3zM1026.6 383.5c.4 1.1 2.1 6.7 3.8 12.5 2.7 9 3.4 10.5 5.3 10.6 1.4.1 2-.3 1.6-1.2-.3-.8-.9-1.4-1.5-1.4-.5 0-.6.4-.3 1 .3.5.1 1-.4 1-.6 0-1.2-.8-1.2-1.8-.1-.9-.3-2.9-.4-4.4-.3-2.1 0-2.6 1.3-2.1.9.3.6-.3-.8-1.3-1.4-1.1-2.6-2.4-2.7-3-.1-.5-1.3-3.5-2.8-6.5-1.4-3-2.2-4.5-1.9-3.4zM1038 395c-.6 1.1-.8 2-.6 2 .3 0 1-.9 1.6-2 .6-1.1.8-2 .6-2-.3 0-1 .9-1.6 2zM1038.9 398.2c0 .7-.3 2.5-.5 4-.2 1.4-.1 2.9.3 3.1.5.3.9-1.5 1-3.9.1-2.4-.1-4.4-.3-4.4-.2 0-.4.6-.5 1.2z"/><path d="M1034.6 399.9c-.3.5.1 1.4.9 2.1 1.2 1 1.5 1 1.5-.3 0-1.9-1.6-3.1-2.4-1.8zM1040 411c0 .5.5 1 1.1 1 .5 0 .7-.5.4-1-.3-.6-.8-1-1.1-1-.2 0-.4.4-.4 1zM1039 415.4c0 .2.7.7 1.6 1 .8.3 1.2.2.9-.4-.6-1-2.5-1.4-2.5-.6zM88.6 437.7c-1.9 5.4-2 7.3-.5 7.3.5 0 .7-.5.4-1-.3-.6-.2-1 .3-1s1.4-2.3 1.9-5c1.3-6.3 0-6.5-2.1-.3zM87 450.5c0 2.7.2 4.6.4 4.4.8-.8 1-7.8.3-8.5-.4-.4-.7 1.4-.7 4.1zM99.2 457c-1.2 5.2-2.2 11.3-2.2 13.5 0 2.2-.5 5.8-1 8s-1.2 8.9-1.4 15c-.5 10.4-.5 10.7.7 6 .7-2.8 1.8-4.9 2.4-4.8.7.1 1.3-5.8 1.7-17 .4-9.5 1.2-19.1 1.8-21.3.5-2.3.8-5.2.6-6.5-.2-1.4-1.3 1.6-2.6 7.1zM1008.1 453.6c0 1.1.3 1.4.6.6.3-.7.2-1.6-.1-1.9-.3-.4-.6.2-.5 1.3zM85.2 466c0 1.4.2 1.9.5 1.2.2-.6.2-1.8 0-2.5-.3-.6-.5-.1-.5 1.3zM21.2 481c0 1.4.2 1.9.5 1.2.2-.6.2-1.8 0-2.5-.3-.6-.5-.1-.5 1.3zM24.1 487.6c0 1.1.3 1.4.6.6.3-.7.2-1.6-.1-1.9-.3-.4-.6.2-.5 1.3zM1015.1 487.6c0 1.1.3 1.4.6.6.3-.7.2-1.6-.1-1.9-.3-.4-.6.2-.5 1.3zM1016.1 494.6c0 1.1.3 1.4.6.6.3-.7.2-1.6-.1-1.9-.3-.4-.6.2-.5 1.3zM24.2 500.5c0 1.6.2 2.2.5 1.2.2-.9.2-2.3 0-3-.3-.6-.5.1-.5 1.8zM1017.2 503c0 1.4.2 1.9.5 1.2.2-.6.2-1.8 0-2.5-.3-.6-.5-.1-.5 1.3zM96 507.7c0 2.6-.2 7.3-.5 10.3-.4 4.7-.3 5 .5 2 1.4-5.3 2-15.9.9-16.5-.5-.4-.9 1.5-.9 4.2zM1048.5 503.9c-1.3 2.2-1.6 14.8-.4 21.5 2.1 12.6 4.2 1.6 2.7-14.3-.8-7.7-1.2-8.9-2.3-7.2zM1018.2 514c0 1.9.2 2.7.5 1.7.2-.9.2-2.5 0-3.5-.3-.9-.5-.1-.5 1.8zM21.3 519.5c0 2.2.2 3 .4 1.7.2-1.2.2-3 0-4-.3-.9-.5.1-.4 2.3zM1019.3 528c0 3 .2 4.3.4 2.7.2-1.5.2-3.9 0-5.5-.2-1.5-.4-.2-.4 2.8zM21.6 531c.8 4.3 1.4 5.1 1.4 1.9 0-1.3-.5-3.1-1-3.9-.7-1.1-.8-.5-.4 2zM23.2 541.5c0 1.6.2 2.2.5 1.2.2-.9.2-2.3 0-3-.3-.6-.5.1-.5 1.8zM1020.4 561c0 11.8.2 16.7.3 10.7.2-5.9.2-15.5 0-21.5-.1-5.9-.3-1-.3 10.8zM20.3 545.5c0 2.2.2 3 .4 1.7.2-1.2.2-3 0-4-.3-.9-.5.1-.4 2.3zM1019.3 590.5c0 4.4.2 6.1.4 3.7.2-2.3.2-5.9 0-8-.2-2-.4-.1-.4 4.3zM1004.3 589.5c0 2.7.2 3.8.4 2.2.2-1.5.2-3.7 0-5-.2-1.2-.4 0-.4 2.8zM1003.2 600c0 1.9.2 2.7.5 1.7.2-.9.2-2.5 0-3.5-.3-.9-.5-.1-.5 1.8zM1018.3 605c0 3 .2 4.3.4 2.7.2-1.5.2-3.9 0-5.5-.2-1.5-.4-.2-.4 2.8zM1002.2 607.5c0 1.6.2 2.2.5 1.2.2-.9.2-2.3 0-3-.3-.6-.5.1-.5 1.8zM1017.3 615.5c0 2.2.2 3 .4 1.7.2-1.2.2-3 0-4-.3-.9-.5.1-.4 2.3zM1001.2 615c0 1.4.2 1.9.5 1.2.2-.6.2-1.8 0-2.5-.3-.6-.5-.1-.5 1.3zM1000.1 622.6c0 1.1.3 1.4.6.6.3-.7.2-1.6-.1-1.9-.3-.4-.6.2-.5 1.3zM1016.2 625c0 1.9.2 2.7.5 1.7.2-.9.2-2.5 0-3.5-.3-.9-.5-.1-.5 1.8zM1015.2 632.5c0 1.6.2 2.2.5 1.2.2-.9.2-2.3 0-3-.3-.6-.5.1-.5 1.8zM1014.1 639.6c0 1.1.3 1.4.6.6.3-.7.2-1.6-.1-1.9-.3-.4-.6.2-.5 1.3zM1013.1 646.6c0 1.1.3 1.4.6.6.3-.7.2-1.6-.1-1.9-.3-.4-.6.2-.5 1.3zM1012.1 652.6c0 1.1.3 1.4.6.6.3-.7.2-1.6-.1-1.9-.3-.4-.6.2-.5 1.3zM49.4 816.7c.3 4.9 2 8 10.2 18.9 20.1 26.7 50.1 56.3 79 77.9 18.1 13.6 40.2 27.1 51.3 31.5 5.6 2.2 13.1 3.6 13.1 2.5 0-.3-.9-2.3-1.9-4.4-2.4-4.5-6.5-8.2-35.6-31.1-36.3-28.6-53.2-43.1-84.9-72.8-30.8-28.9-31.6-29.5-31.2-22.5zm27.2 21.9c30.1 28.8 30.6 29.3 16.1 16.4-14.4-12.7-42.2-39.6-37.6-36.3 1.4 1 11.1 10 21.5 19.9zm35 32.6l2.9 3.3-3.2-2.9c-3.1-2.8-3.8-3.6-3-3.6.2 0 1.6 1.5 3.3 3.2zm7.4 6.3c1.3 1.4 2.1 2.5 1.8 2.5-.2 0-1.5-1.1-2.8-2.5-1.3-1.4-2.1-2.5-1.8-2.5.2 0 1.5 1.1 2.8 2.5zm6.5 5.5c1 1.1 1.6 2 1.3 2-.3 0-1.3-.9-2.3-2-1-1.1-1.6-2-1.3-2 .3 0 1.3.9 2.3 2zm6.6 5.7c1.3 1.6 1.2 1.7-.3.4-1-.7-1.8-1.5-1.8-1.7 0-.8.8-.3 2.1 1.3zm6 5c1.3 1.6 1.2 1.7-.3.4-1-.7-1.8-1.5-1.8-1.7 0-.8.8-.3 2.1 1.3zm5 4c1.3 1.6 1.2 1.7-.3.4-1-.7-1.8-1.5-1.8-1.7 0-.8.8-.3 2.1 1.3zm5 4c1.3 1.6 1.2 1.7-.3.4-1-.7-1.8-1.5-1.8-1.7 0-.8.8-.3 2.1 1.3zm5 4c1.3 1.6 1.2 1.7-.3.4-1-.7-1.8-1.5-1.8-1.7 0-.8.8-.3 2.1 1.3zm4.4 3.3c1 1.1 1.6 2 1.3 2-.3 0-1.3-.9-2.3-2-1-1.1-1.6-2-1.3-2 .3 0 1.3.9 2.3 2zm4.6 3.7c1.3 1.6 1.2 1.7-.3.4-1.7-1.3-2.2-2.1-1.4-2.1.2 0 1 .8 1.7 1.7zm4.4 3.3c1 1.1 1.6 2 1.3 2-.3 0-1.3-.9-2.3-2-1-1.1-1.6-2-1.3-2 .3 0 1.3.9 2.3 2zm4.6 3.7c1.3 1.6 1.2 1.7-.3.4-1-.7-1.8-1.5-1.8-1.7 0-.8.8-.3 2.1 1.3zm4 3c1.3 1.6 1.2 1.7-.3.4-1-.7-1.8-1.5-1.8-1.7 0-.8.8-.3 2.1 1.3zm4 3c1.3 1.6 1.2 1.7-.3.4-1-.7-1.8-1.5-1.8-1.7 0-.8.8-.3 2.1 1.3zM518.3 926.7c.9.2 2.3.2 3 0 .6-.3-.1-.5-1.8-.5-1.6 0-2.2.2-1.2.5zM465 929c1.4.9 9.9 1.5 8.9.6-.2-.2-2.6-.6-5.4-1-3.4-.4-4.5-.3-3.5.4zM477.8 930.7c.7.3 1.6.2 1.9-.1.4-.3-.2-.6-1.3-.5-1.1 0-1.4.3-.6.6zM484.8 931.7c.7.3 1.6.2 1.9-.1.4-.3-.2-.6-1.3-.5-1.1 0-1.4.3-.6.6zM533.2 986.7c3.7.2 10 .2 14 0 4-.1 1-.3-6.7-.3s-11 .1-7.3.3zM737.8 1025.7c.6.2 1.8.2 2.5 0 .6-.3.1-.5-1.3-.5-1.4 0-1.9.2-1.2.5z"/></svg>